AtkinsonHyperlegibleMono-ExtraBold.sfdir
StartChar: quotedbl
Encoding: 34 34 284
Width: 632
GlyphClass: 1
Flags: W
LayerCount: 2
Fore
SplineSet
121 668 m 1,0,-1
 282 668 l 1,1,-1
 267 420 l 1,2,-1
 136 420 l 1,3,-1
 121 668 l 1,0,-1
350 668 m 1,4,-1
 511 668 l 1,5,-1
 496 420 l 1,6,-1
 365 420 l 1,7,-1
 350 668 l 1,4,-1
EndSplineSet
EndChar
StartChar: dollar
Encoding: 36 36 304
Width: 632
GlyphClass: 1
Flags: W
LayerCount: 2
Fore
SplineSet
129.5 42 m 128,-1,1
 67 86 67 86 38 159 c 1,2,-1
 188 215 l 1,3,4
 196 182 196 182 221.5 158 c 128,-1,5
 247 134 247 134 282 125 c 1,6,-1
 282 276 l 1,7,-1
 249 283 l 2,8,9
 156 302 156 302 104.5 347.5 c 128,-1,10
 53 393 53 393 53 469 c 0,11,12
 53 531 53 531 85.5 575 c 128,-1,13
 118 619 118 619 170.5 644 c 128,-1,14
 223 669 223 669 282 677 c 1,15,-1
 282 758 l 1,16,-1
 355 758 l 1,17,-1
 355 679 l 1,18,19
 431 673 431 673 491.5 636.5 c 128,-1,20
 552 600 552 600 579 531 c 1,21,-1
 430 476 l 1,22,23
 411 527 411 527 355 543 c 1,24,-1
 355 407 l 1,25,-1
 370 404 l 2,26,27
 481 382 481 382 537 339.5 c 128,-1,28
 593 297 593 297 593 213 c 0,29,30
 593 149 593 149 560 100.5 c 128,-1,31
 527 52 527 52 473 24 c 128,-1,32
 419 -4 419 -4 355 -10 c 1,33,-1
 355 -90 l 1,34,-1
 282 -90 l 1,35,-1
 282 -10 l 1,36,0
 192 -2 192 -2 129.5 42 c 128,-1,1
407.5 144 m 128,-1,38
 428 161 428 161 428 191 c 0,39,40
 428 240 428 240 362 259 c 2,41,-1
 355 261 l 1,42,-1
 355 121 l 1,43,37
 387 127 387 127 407.5 144 c 128,-1,38
235 525.5 m 128,-1,45
 218 510 218 510 218 486 c 0,46,47
 218 442 218 442 275 425 c 2,48,-1
 282 423 l 1,49,-1
 282 546 l 1,50,44
 252 541 252 541 235 525.5 c 128,-1,45
EndSplineSet
EndChar
StartChar: percent
Encoding: 37 37 332
Width: 632
GlyphClass: 1
Flags: W
LayerCount: 2
Fore
SplineSet
81.5 401 m 128,-1,1
 47 421 47 421 27 455 c 128,-1,2
 7 489 7 489 7 530 c 256,3,4
 7 571 7 571 27 605 c 128,-1,5
 47 639 47 639 81.5 659 c 128,-1,6
 116 679 116 679 156 679 c 256,7,8
 196 679 196 679 230.5 659 c 128,-1,9
 265 639 265 639 285 605 c 128,-1,10
 305 571 305 571 305 530 c 256,11,12
 305 489 305 489 285 455 c 128,-1,13
 265 421 265 421 230.5 401 c 128,-1,14
 196 381 196 381 156 381 c 256,15,0
 116 381 116 381 81.5 401 c 128,-1,1
193.5 491 m 128,-1,17
 209 507 209 507 209 530 c 256,18,19
 209 553 209 553 193.5 569 c 128,-1,20
 178 585 178 585 156 585 c 256,21,22
 134 585 134 585 118.5 569 c 128,-1,23
 103 553 103 553 103 530 c 256,24,25
 103 507 103 507 118.5 491 c 128,-1,26
 134 475 134 475 156 475 c 256,27,16
 178 475 178 475 193.5 491 c 128,-1,17
436 668 m 1,28,-1
 556 668 l 1,29,-1
 196 0 l 1,30,-1
 76 0 l 1,31,-1
 436 668 l 1,28,-1
401.5 7 m 128,-1,33
 367 27 367 27 347 61 c 128,-1,34
 327 95 327 95 327 136 c 256,35,36
 327 177 327 177 347 211 c 128,-1,37
 367 245 367 245 401.5 265 c 128,-1,38
 436 285 436 285 476 285 c 256,39,40
 516 285 516 285 550.5 265 c 128,-1,41
 585 245 585 245 605 211 c 128,-1,42
 625 177 625 177 625 136 c 256,43,44
 625 95 625 95 605 61 c 128,-1,45
 585 27 585 27 550.5 7 c 128,-1,46
 516 -13 516 -13 476 -13 c 256,47,32
 436 -13 436 -13 401.5 7 c 128,-1,33
513.5 97 m 128,-1,49
 529 113 529 113 529 136 c 256,50,51
 529 159 529 159 513.5 175 c 128,-1,52
 498 191 498 191 476 191 c 256,53,54
 454 191 454 191 438.5 175 c 128,-1,55
 423 159 423 159 423 136 c 256,56,57
 423 113 423 113 438.5 97 c 128,-1,58
 454 81 454 81 476 81 c 256,59,48
 498 81 498 81 513.5 97 c 128,-1,49
EndSplineSet
EndChar
StartChar: quotesingle
Encoding: 39 39 285
Width: 632
GlyphClass: 1
Flags: W
LayerCount: 2
Fore
SplineSet
235 668 m 1,0,-1
 397 668 l 1,1,-1
 382 420 l 1,2,-1
 251 420 l 1,3,-1
 235 668 l 1,0,-1
EndSplineSet
EndChar
StartChar: asterisk
Encoding: 42 42 260
Width: 632
GlyphClass: 1
Flags: W
LayerCount: 2
Fore
SplineSet
172 368 m 1,0,-1
 243 464 l 1,1,-1
 129 502 l 1,2,-1
 158 588 l 1,3,-1
 270 551 l 1,4,-1
 270 670 l 1,5,-1
 362 670 l 1,6,-1
 362 551 l 1,7,-1
 473 588 l 1,8,-1
 503 502 l 1,9,-1
 390 464 l 1,10,-1
 461 367 l 1,11,-1
 387 314 l 1,12,-1
 316 410 l 1,13,-1
 246 315 l 1,14,-1
 172 368 l 1,0,-1
EndSplineSet
EndChar
StartChar: two
Encoding: 50 50 231
Width: 632
GlyphClass: 5
Flags: W
LayerCount: 2
Fore
SplineSet
321 333.5 m 128,-1,1
 403 416 403 416 403 483 c 0,2,3
 403 519 403 519 379 539.5 c 128,-1,4
 355 560 355 560 316 560 c 0,5,6
 284 560 284 560 257.5 541 c 128,-1,7
 231 522 231 522 221 482 c 1,8,-1
 73 536 l 1,9,10
 101 605 101 605 167.5 642.5 c 128,-1,11
 234 680 234 680 324 680 c 0,12,13
 394 680 394 680 449 656.5 c 128,-1,14
 504 633 504 633 535.5 588.5 c 128,-1,15
 567 544 567 544 567 483 c 0,16,17
 567 387 567 387 492 302.5 c 128,-1,18
 417 218 417 218 266 132 c 1,19,-1
 571 132 l 1,20,-1
 571 0 l 1,21,-1
 57 0 l 1,22,-1
 57 133 l 1,23,0
 239 251 239 251 321 333.5 c 128,-1,1
EndSplineSet
Substitution2: "'sups' Superscript in Latin lookup 6 subtable" uni00B2
AlternateSubs2: "'aalt' Access All Alternates in Latin lookup 0 subtable" uni00B2
EndChar
StartChar: three
Encoding: 51 51 232
Width: 632
GlyphClass: 5
Flags: W
LayerCount: 2
Fore
SplineSet
153.5 24.5 m 128,-1,1
 82 61 82 61 50 138 c 1,2,-1
 199 193 l 1,3,4
 211 148 211 148 244 128 c 128,-1,5
 277 108 277 108 318 108 c 0,6,7
 362 108 362 108 387.5 131 c 128,-1,8
 413 154 413 154 413 194 c 0,9,10
 413 287 413 287 255 287 c 2,11,-1
 230 287 l 1,12,-1
 230 398 l 1,13,-1
 255 398 l 2,14,15
 328 398 328 398 367.5 423 c 128,-1,16
 407 448 407 448 407 486 c 0,17,18
 407 522 407 522 378 541 c 128,-1,19
 349 560 349 560 307 560 c 0,20,21
 270 560 270 560 241.5 542 c 128,-1,22
 213 524 213 524 204 483 c 1,23,-1
 58 537 l 1,24,25
 87 610 87 610 157.5 645 c 128,-1,26
 228 680 228 680 317 680 c 0,27,28
 382 680 382 680 440 660.5 c 128,-1,29
 498 641 498 641 534.5 601 c 128,-1,30
 571 561 571 561 571 502 c 0,31,32
 571 445 571 445 541.5 407 c 128,-1,33
 512 369 512 369 462 348 c 1,34,35
 519 328 519 328 549.5 287 c 128,-1,36
 580 246 580 246 580 196 c 0,37,38
 580 129 580 129 543 82 c 128,-1,39
 506 35 506 35 445.5 11.5 c 128,-1,40
 385 -12 385 -12 313 -12 c 0,41,0
 225 -12 225 -12 153.5 24.5 c 128,-1,1
EndSplineSet
Substitution2: "'sups' Superscript in Latin lookup 6 subtable" uni00B3
AlternateSubs2: "'aalt' Access All Alternates in Latin lookup 0 subtable" uni00B3
EndChar
StartChar: four
Encoding: 52 52 233
Width: 632
GlyphClass: 5
Flags: W
LayerCount: 2
Fore
SplineSet
353 136 m 1,0,-1
 29 136 l 1,1,-1
 29 253 l 1,2,-1
 349 668 l 1,3,-1
 517 668 l 1,4,-1
 517 281 l 1,5,-1
 604 281 l 1,6,-1
 604 136 l 1,7,-1
 517 136 l 1,8,-1
 517 0 l 1,9,-1
 353 0 l 1,10,-1
 353 136 l 1,0,-1
353 281 m 1,11,-1
 353 454 l 1,12,-1
 349 454 l 1,13,-1
 207 281 l 1,14,-1
 353 281 l 1,11,-1
EndSplineSet
EndChar
StartChar: six
Encoding: 54 54 235
Width: 632
GlyphClass: 1
Flags: W
LayerCount: 2
Fore
SplineSet
169 31.5 m 128,-1,1
 107 75 107 75 76.5 148.5 c 128,-1,2
 46 222 46 222 46 311 c 0,3,4
 46 477 46 477 118 578.5 c 128,-1,5
 190 680 190 680 338 680 c 0,6,7
 421 680 421 680 472.5 652 c 128,-1,8
 524 624 524 624 554 571 c 1,9,-1
 409 518 l 1,10,11
 399 539 399 539 377.5 550.5 c 128,-1,12
 356 562 356 562 329 562 c 0,13,14
 278 562 278 562 246.5 522 c 128,-1,15
 215 482 215 482 214 406 c 1,16,17
 240 427 240 427 277.5 440 c 128,-1,18
 315 453 315 453 360 453 c 0,19,20
 421 453 421 453 472.5 424.5 c 128,-1,21
 524 396 524 396 554.5 345 c 128,-1,22
 585 294 585 294 585 230 c 0,23,24
 585 159 585 159 550.5 104 c 128,-1,25
 516 49 516 49 456 18.5 c 128,-1,26
 396 -12 396 -12 320 -12 c 0,27,0
 231 -12 231 -12 169 31.5 c 128,-1,1
391.5 138 m 128,-1,29
 418 169 418 169 418 221 c 0,30,31
 418 271 418 271 391 302 c 128,-1,32
 364 333 364 333 318 333 c 0,33,34
 273 333 273 333 245.5 302.5 c 128,-1,35
 218 272 218 272 218 221 c 0,36,37
 218 169 218 169 245.5 138 c 128,-1,38
 273 107 273 107 319 107 c 256,39,28
 365 107 365 107 391.5 138 c 128,-1,29
EndSplineSet
EndChar
StartChar: seven
Encoding: 55 55 236
Width: 632
GlyphClass: 1
Flags: W
LayerCount: 2
Fore
SplineSet
396 536 m 1,0,-1
 62 536 l 1,1,-1
 62 668 l 1,2,-1
 569 668 l 1,3,-1
 569 536 l 1,4,-1
 315 0 l 1,5,-1
 128 0 l 1,6,-1
 396 536 l 1,0,-1
EndSplineSet
EndChar
StartChar: nine
Encoding: 57 57 238
Width: 632
GlyphClass: 1
Flags: W
LayerCount: 2
Fore
SplineSet
184 227.5 m 128,-1,1
 130 261 130 261 98.5 316 c 128,-1,2
 67 371 67 371 67 436 c 0,3,4
 67 502 67 502 99.5 558 c 128,-1,5
 132 614 132 614 187.5 646.5 c 128,-1,6
 243 679 243 679 308 679 c 0,7,8
 374 679 374 679 431 646 c 128,-1,9
 488 613 488 613 521.5 556.5 c 128,-1,10
 555 500 555 500 555 434 c 0,11,12
 555 401 555 401 546 367 c 128,-1,13
 537 333 537 333 511 282 c 2,14,-1
 369 0 l 1,15,-1
 202 0 l 1,16,-1
 303 191 l 1,17,0
 238 194 238 194 184 227.5 c 128,-1,1
383 363 m 128,-1,19
 413 393 413 393 413 434 c 0,20,21
 413 456 413 456 401.5 479.5 c 128,-1,22
 390 503 390 503 366.5 519.5 c 128,-1,23
 343 536 343 536 311 536 c 0,24,25
 266 536 266 536 238 505.5 c 128,-1,26
 210 475 210 475 210 435 c 0,27,28
 210 390 210 390 241.5 361.5 c 128,-1,29
 273 333 273 333 312 333 c 0,30,18
 353 333 353 333 383 363 c 128,-1,19
EndSplineSet
EndChar
StartChar: less
Encoding: 60 60 318
Width: 632
GlyphClass: 1
Flags: W
LayerCount: 2
Fore
SplineSet
68 198 m 1,0,-1
 68 302 l 1,1,-1
 564 513 l 1,2,-1
 564 362 l 1,3,-1
 248 250 l 1,4,-1
 564 136 l 1,5,-1
 564 -14 l 1,6,-1
 68 198 l 1,0,-1
EndSplineSet
EndChar
StartChar: greater
Encoding: 62 62 317
Width: 632
GlyphClass: 1
Flags: W
LayerCount: 2
Fore
SplineSet
68 136 m 1,0,-1
 385 250 l 1,1,-1
 68 362 l 1,2,-1
 68 513 l 1,3,-1
 564 302 l 1,4,-1
 564 198 l 1,5,-1
 68 -14 l 1,6,-1
 68 136 l 1,0,-1
EndSplineSet
EndChar
StartChar: question
Encoding: 63 63 256
Width: 632
GlyphClass: 1
Flags: W
LayerCount: 2
Fore
SplineSet
220.5 367 m 128,-1,1
 250 408 250 408 316 430 c 0,2,3
 366 447 366 447 388.5 463 c 128,-1,4
 411 479 411 479 411 500 c 0,5,6
 411 522 411 522 385.5 536.5 c 128,-1,7
 360 551 360 551 318 551 c 0,8,9
 275 551 275 551 240 533 c 128,-1,10
 205 515 205 515 189 480 c 1,11,-1
 43 535 l 1,12,13
 73 605 73 605 145.5 642.5 c 128,-1,14
 218 680 218 680 320 680 c 0,15,16
 390 680 390 680 449.5 659.5 c 128,-1,17
 509 639 509 639 545 599 c 128,-1,18
 581 559 581 559 581 503 c 0,19,20
 581 443 581 443 547 407.5 c 128,-1,21
 513 372 513 372 448 344 c 0,22,23
 393 320 393 320 374.5 300 c 128,-1,24
 356 280 356 280 356 256 c 2,25,-1
 356 240 l 1,26,-1
 191 240 l 1,27,-1
 191 255 l 2,28,0
 191 326 191 326 220.5 367 c 128,-1,1
203 18.5 m 128,-1,30
 173 49 173 49 173 91 c 0,31,32
 173 134 173 134 203 164 c 128,-1,33
 233 194 233 194 276 194 c 0,34,35
 318 194 318 194 348.5 164 c 128,-1,36
 379 134 379 134 379 91 c 0,37,38
 379 49 379 49 348.5 18.5 c 128,-1,39
 318 -12 318 -12 276 -12 c 0,40,29
 233 -12 233 -12 203 18.5 c 128,-1,30
EndSplineSet
EndChar
StartChar: at
Encoding: 64 64 288
Width: 632
GlyphClass: 1
Flags: W
LayerCount: 2
Fore
SplineSet
157.5 -57.5 m 128,-1,1
 87 -12 87 -12 48.5 68 c 128,-1,2
 10 148 10 148 10 251 c 0,3,4
 10 355 10 355 49.5 437 c 128,-1,5
 89 519 89 519 160 565 c 128,-1,6
 231 611 231 611 323 611 c 0,7,8
 411 611 411 611 479 569.5 c 128,-1,9
 547 528 547 528 584.5 454 c 128,-1,10
 622 380 622 380 622 285 c 0,11,12
 622 215 622 215 601 166.5 c 128,-1,13
 580 118 580 118 547 95 c 128,-1,14
 514 72 514 72 479 72 c 0,15,16
 448 72 448 72 422 88 c 128,-1,17
 396 104 396 104 383 132 c 1,18,19
 368 103 368 103 342 89 c 128,-1,20
 316 75 316 75 288 75 c 0,21,22
 257 75 257 75 225 94.5 c 128,-1,23
 193 114 193 114 172.5 151 c 128,-1,24
 152 188 152 188 152 239 c 0,25,26
 152 341 152 341 205 389.5 c 128,-1,27
 258 438 258 438 333 438 c 0,28,29
 392 438 392 438 454 418 c 1,30,-1
 454 231 l 2,31,32
 454 155 454 155 492 155 c 0,33,34
 514 155 514 155 527 188 c 128,-1,35
 540 221 540 221 540 290 c 0,36,37
 540 365 540 365 512 420.5 c 128,-1,38
 484 476 484 476 434.5 506 c 128,-1,39
 385 536 385 536 321 536 c 0,40,41
 251 536 251 536 200 499.5 c 128,-1,42
 149 463 149 463 122 398.5 c 128,-1,43
 95 334 95 334 95 253 c 0,44,45
 95 171 95 171 123.5 107 c 128,-1,46
 152 43 152 43 204 7.5 c 128,-1,47
 256 -28 256 -28 324 -28 c 0,48,49
 355 -28 355 -28 381.5 -19.5 c 128,-1,50
 408 -11 408 -11 436 8 c 1,51,-1
 436 -75 l 1,52,53
 383 -103 383 -103 321 -103 c 0,54,0
 228 -103 228 -103 157.5 -57.5 c 128,-1,1
348.5 192 m 128,-1,56
 367 214 367 214 367 253 c 2,57,-1
 367 344 l 1,58,59
 349 348 349 348 332 348 c 0,60,61
 253 348 253 348 253 248 c 0,62,63
 253 211 253 211 268.5 190.5 c 128,-1,64
 284 170 284 170 306 170 c 0,65,55
 330 170 330 170 348.5 192 c 128,-1,56
EndSplineSet
EndChar
StartChar: A
Encoding: 65 65 2
Width: 632
GlyphClass: 2
Flags: W
AnchorPoint: "Anchor-2" 601 10 basechar 0
AnchorPoint: "Anchor-1" 316 668 basechar 0
AnchorPoint: "Anchor-0" 316 0 basechar 0
LayerCount: 2
Fore
SplineSet
227 668 m 1,0,-1
 405 668 l 1,1,-1
 601 0 l 1,2,-1
 445 0 l 1,3,-1
 415 114 l 1,4,-1
 209 114 l 1,5,-1
 179 0 l 1,6,-1
 31 0 l 1,7,-1
 227 668 l 1,0,-1
379 251 m 1,8,-1
 314 496 l 1,9,-1
 310 496 l 1,10,-1
 245 251 l 1,11,-1
 379 251 l 1,8,-1
EndSplineSet
Substitution2: "Single Substitution lookup 14 subtable" ordfeminine
AlternateSubs2: "'aalt' Access All Alternates in Latin lookup 0 subtable" ordfeminine
EndChar
StartChar: E
Encoding: 69 69 23
Width: 632
GlyphClass: 2
Flags: W
AnchorPoint: "Anchor-2" 565 10 basechar 0
AnchorPoint: "Anchor-1" 329 668 basechar 0
AnchorPoint: "Anchor-0" 318 0 basechar 0
LayerCount: 2
Fore
SplineSet
88 668 m 1,0,-1
 561 668 l 1,1,-1
 561 519 l 1,2,-1
 257 519 l 1,3,-1
 257 418 l 1,4,-1
 431 418 l 1,5,-1
 431 269 l 1,6,-1
 257 269 l 1,7,-1
 257 149 l 1,8,-1
 565 149 l 1,9,-1
 565 0 l 1,10,-1
 88 0 l 1,11,-1
 88 668 l 1,0,-1
EndSplineSet
EndChar
StartChar: G
Encoding: 71 71 33
Width: 632
GlyphClass: 2
Flags: W
AnchorPoint: "Anchor-1" 308 668 basechar 0
AnchorPoint: "Anchor-0" 308 0 basechar 0
LayerCount: 2
Fore
SplineSet
161 30 m 128,-1,1
 101 72 101 72 68.5 151 c 128,-1,2
 36 230 36 230 36 336 c 0,3,4
 36 440 36 440 72.5 518 c 128,-1,5
 109 596 109 596 174 638 c 128,-1,6
 239 680 239 680 324 680 c 0,7,8
 403 680 403 680 466.5 641 c 128,-1,9
 530 602 530 602 558 529 c 1,10,-1
 427 481 l 1,11,12
 415 509 415 509 390.5 527.5 c 128,-1,13
 366 546 366 546 328 546 c 0,14,15
 269 546 269 546 232 492.5 c 128,-1,16
 195 439 195 439 195 336 c 0,17,18
 195 230 195 230 232 176 c 128,-1,19
 269 122 269 122 336 122 c 0,20,21
 382 122 382 122 411 149.5 c 128,-1,22
 440 177 440 177 440 237 c 2,23,-1
 440 257 l 1,24,-1
 322 257 l 1,25,-1
 322 383 l 1,26,-1
 581 383 l 1,27,-1
 581 0 l 1,28,-1
 487 0 l 1,29,-1
 466 71 l 1,30,31
 441 30 441 30 397.5 9 c 128,-1,32
 354 -12 354 -12 301 -12 c 0,33,0
 221 -12 221 -12 161 30 c 128,-1,1
EndSplineSet
EndChar
StartChar: I
Encoding: 73 73 39
Width: 632
GlyphClass: 2
Flags: W
AnchorPoint: "Anchor-2" 523 10 basechar 0
AnchorPoint: "Anchor-1" 316 668 basechar 0
AnchorPoint: "Anchor-0" 316 0 basechar 0
LayerCount: 2
Fore
SplineSet
109 123 m 1,0,-1
 232 123 l 1,1,-1
 232 545 l 1,2,-1
 109 545 l 1,3,-1
 109 668 l 1,4,-1
 523 668 l 1,5,-1
 523 545 l 1,6,-1
 400 545 l 1,7,-1
 400 123 l 1,8,-1
 523 123 l 1,9,-1
 523 0 l 1,10,-1
 109 0 l 1,11,-1
 109 123 l 1,0,-1
EndSplineSet
EndChar
StartChar: L
Encoding: 76 76 52
Width: 632
GlyphClass: 2
Flags: W
AnchorPoint: "Anchor-3" 315 459 basechar 0
AnchorPoint: "Anchor-1" 332 668 basechar 0
AnchorPoint: "Anchor-0" 332 0 basechar 0
LayerCount: 2
Fore
SplineSet
101 668 m 1,0,-1
 270 668 l 1,1,-1
 270 149 l 1,2,-1
 584 149 l 1,3,-1
 584 0 l 1,4,-1
 101 0 l 1,5,-1
 101 668 l 1,0,-1
EndSplineSet
EndChar
StartChar: N
Encoding: 78 78 57
Width: 632
GlyphClass: 2
Flags: W
AnchorPoint: "Anchor-1" 316 668 basechar 0
AnchorPoint: "Anchor-0" 305 0 basechar 0
LayerCount: 2
Fore
SplineSet
51 668 m 1,0,-1
 234 668 l 1,1,-1
 435 215 l 1,2,-1
 439 215 l 1,3,-1
 439 668 l 1,4,-1
 581 668 l 1,5,-1
 581 0 l 1,6,-1
 397 0 l 1,7,-1
 197 453 l 1,8,-1
 193 453 l 1,9,-1
 193 0 l 1,10,-1
 51 0 l 1,11,-1
 51 668 l 1,0,-1
EndSplineSet
EndChar
StartChar: O
Encoding: 79 79 62
Width: 632
GlyphClass: 2
Flags: W
AnchorPoint: "Anchor-3" 602 668 basechar 0
AnchorPoint: "Anchor-2" 557 10 basechar 0
AnchorPoint: "Anchor-1" 317 668 basechar 0
AnchorPoint: "Anchor-0" 317 0 basechar 0
LayerCount: 2
Fore
SplineSet
167 30 m 128,-1,1
 104 72 104 72 70 150 c 128,-1,2
 36 228 36 228 36 334 c 256,3,4
 36 440 36 440 70 518 c 128,-1,5
 104 596 104 596 167 638 c 128,-1,6
 230 680 230 680 316 680 c 256,7,8
 402 680 402 680 465 638 c 128,-1,9
 528 596 528 596 562 518 c 128,-1,10
 596 440 596 440 596 334 c 256,11,12
 596 228 596 228 562 150 c 128,-1,13
 528 72 528 72 465 30 c 128,-1,14
 402 -12 402 -12 316 -12 c 256,15,0
 230 -12 230 -12 167 30 c 128,-1,1
401 176.5 m 128,-1,17
 432 231 432 231 432 334 c 256,18,19
 432 437 432 437 401 491.5 c 128,-1,20
 370 546 370 546 316 546 c 256,21,22
 262 546 262 546 231 491.5 c 128,-1,23
 200 437 200 437 200 334 c 256,24,25
 200 231 200 231 231 176.5 c 128,-1,26
 262 122 262 122 316 122 c 256,27,16
 370 122 370 122 401 176.5 c 128,-1,17
EndSplineSet
Substitution2: "Single Substitution lookup 14 subtable" ordmasculine
AlternateSubs2: "'aalt' Access All Alternates in Latin lookup 0 subtable" ordmasculine
EndChar
StartChar: P
Encoding: 80 80 71
Width: 632
GlyphClass: 2
Flags: W
AnchorPoint: "Anchor-1" 329 668 basechar 0
AnchorPoint: "Anchor-0" 329 0 basechar 0
LayerCount: 2
Fore
SplineSet
66 668 m 1,0,-1
 350 668 l 2,1,2
 422 668 422 668 480 644 c 128,-1,3
 538 620 538 620 573 570.5 c 128,-1,4
 608 521 608 521 608 446 c 256,5,6
 608 371 608 371 573 321.5 c 128,-1,7
 538 272 538 272 480 248 c 128,-1,8
 422 224 422 224 350 224 c 2,9,-1
 221 224 l 1,10,-1
 221 0 l 1,11,-1
 66 0 l 1,12,-1
 66 668 l 1,0,-1
420 379 m 128,-1,14
 449 401 449 401 449 446 c 256,15,16
 449 491 449 491 420 513 c 128,-1,17
 391 535 391 535 345 535 c 2,18,-1
 221 535 l 1,19,-1
 221 357 l 1,20,-1
 345 357 l 2,21,13
 391 357 391 357 420 379 c 128,-1,14
EndSplineSet
EndChar
StartChar: R
Encoding: 82 82 74
Width: 632
GlyphClass: 2
Flags: W
AnchorPoint: "Anchor-1" 297 668 basechar 0
AnchorPoint: "Anchor-0" 317 0 basechar 0
LayerCount: 2
Fore
SplineSet
52 668 m 1,0,-1
 318 668 l 2,1,2
 428 668 428 668 499.5 615.5 c 128,-1,3
 571 563 571 563 571 457 c 0,4,5
 571 381 571 381 533 333 c 128,-1,6
 495 285 495 285 429 264 c 1,7,-1
 602 0 l 1,8,-1
 422 0 l 1,9,-1
 269 245 l 1,10,-1
 206 245 l 1,11,-1
 206 0 l 1,12,-1
 52 0 l 1,13,-1
 52 668 l 1,0,-1
384.5 398 m 128,-1,15
 410 417 410 417 410 457 c 256,16,17
 410 497 410 497 384.5 516 c 128,-1,18
 359 535 359 535 317 535 c 2,19,-1
 206 535 l 1,20,-1
 206 379 l 1,21,-1
 317 379 l 2,22,14
 359 379 359 379 384.5 398 c 128,-1,15
EndSplineSet
EndChar
StartChar: S
Encoding: 83 83 77
Width: 632
GlyphClass: 2
Flags: W
AnchorPoint: "Anchor-1" 316 668 basechar 0
AnchorPoint: "Anchor-0" 316 0 basechar 0
LayerCount: 2
Fore
SplineSet
144.5 33 m 128,-1,1
 71 78 71 78 39 159 c 1,2,-1
 193 215 l 1,3,4
 203 174 203 174 240 148.5 c 128,-1,5
 277 123 277 123 324 123 c 0,6,7
 361 123 361 123 391.5 141 c 128,-1,8
 422 159 422 159 422 192 c 0,9,10
 422 222 422 222 395.5 239 c 128,-1,11
 369 256 369 256 311 267 c 2,12,-1
 259 278 l 1,13,14
 55 317 55 317 55 475 c 0,15,16
 55 536 55 536 92.5 582.5 c 128,-1,17
 130 629 130 629 192 654.5 c 128,-1,18
 254 680 254 680 326 680 c 0,19,20
 407 680 407 680 476.5 643 c 128,-1,21
 546 606 546 606 576 531 c 1,22,-1
 424 476 l 1,23,24
 411 509 411 509 381.5 527 c 128,-1,25
 352 545 352 545 313 545 c 256,26,27
 274 545 274 545 249 528.5 c 128,-1,28
 224 512 224 512 224 483 c 0,29,30
 224 437 224 437 295 423 c 2,31,-1
 360 410 l 2,32,33
 473 388 473 388 532 343.5 c 128,-1,34
 591 299 591 299 591 214 c 0,35,36
 591 147 591 147 554 95.5 c 128,-1,37
 517 44 517 44 455 16 c 128,-1,38
 393 -12 393 -12 321 -12 c 0,39,0
 218 -12 218 -12 144.5 33 c 128,-1,1
EndSplineSet
EndChar
StartChar: U
Encoding: 85 85 87
Width: 632
GlyphClass: 2
Flags: W
AnchorPoint: "Anchor-3" 625 668 basechar 0
AnchorPoint: "Anchor-1" 316 668 basechar 0
LayerCount: 2
Fore
SplineSet
113 55 m 128,-1,1
 51 122 51 122 51 266 c 2,2,-1
 51 668 l 1,3,-1
 220 668 l 1,4,-1
 220 243 l 2,5,6
 220 185 220 185 241 155 c 128,-1,7
 262 125 262 125 318 125 c 0,8,9
 373 125 373 125 392.5 154.5 c 128,-1,10
 412 184 412 184 412 243 c 2,11,-1
 412 668 l 1,12,-1
 581 668 l 1,13,-1
 581 266 l 2,14,15
 581 122 581 122 519.5 55 c 128,-1,16
 458 -12 458 -12 317 -12 c 0,17,0
 175 -12 175 -12 113 55 c 128,-1,1
EndSplineSet
EndChar
StartChar: a
Encoding: 97 97 112
Width: 632
GlyphClass: 2
Flags: W
AnchorPoint: "Anchor-2" 565 10 basechar 0
AnchorPoint: "Anchor-1" 316 496 basechar 0
AnchorPoint: "Anchor-0" 316 0 basechar 0
LayerCount: 2
Fore
SplineSet
104.5 28 m 128,-1,1
 56 68 56 68 56 134 c 0,2,3
 56 221 56 221 140 263 c 128,-1,4
 224 305 224 305 392 314 c 1,5,-1
 392 328 l 2,6,7
 392 404 392 404 306 404 c 0,8,9
 276 404 276 404 252 387.5 c 128,-1,10
 228 371 228 371 220 346 c 1,11,-1
 84 394 l 1,12,13
 110 446 110 446 170.5 478.5 c 128,-1,14
 231 511 231 511 315 511 c 0,15,16
 427 511 427 511 487 462 c 128,-1,17
 547 413 547 413 547 312 c 2,18,-1
 547 185 l 2,19,20
 547 131 547 131 552 79.5 c 128,-1,21
 557 28 557 28 565 0 c 1,22,-1
 415 0 l 1,23,-1
 397 59 l 1,24,25
 370 20 370 20 327.5 4 c 128,-1,26
 285 -12 285 -12 228 -12 c 0,27,0
 153 -12 153 -12 104.5 28 c 128,-1,1
365.5 119.5 m 128,-1,29
 392 145 392 145 392 204 c 2,30,-1
 392 220 l 1,31,32
 307 215 307 215 265 198 c 128,-1,33
 223 181 223 181 223 148 c 0,34,35
 223 125 223 125 241.5 109.5 c 128,-1,36
 260 94 260 94 289 94 c 0,37,28
 339 94 339 94 365.5 119.5 c 128,-1,29
EndSplineSet
Substitution2: "Single Substitution lookup 14 subtable" ordfeminine
AlternateSubs2: "'aalt' Access All Alternates in Latin lookup 0 subtable" ordfeminine
EndChar
StartChar: k
Encoding: 107 107 161
Width: 632
GlyphClass: 2
Flags: W
AnchorPoint: "Anchor-1" 327 796 basechar 0
AnchorPoint: "Anchor-0" 327 0 basechar 0
LayerCount: 2
Fore
SplineSet
71 708 m 1,0,-1
 235 708 l 1,1,-1
 235 302 l 1,2,-1
 421 496 l 1,3,-1
 615 496 l 1,4,-1
 410 287 l 1,5,-1
 628 0 l 1,6,-1
 435 0 l 1,7,-1
 300 176 l 1,8,-1
 235 110 l 1,9,-1
 235 0 l 1,10,-1
 71 0 l 1,11,-1
 71 708 l 1,0,-1
EndSplineSet
EndChar
StartChar: l
Encoding: 108 108 163
Width: 632
GlyphClass: 2
Flags: W
AnchorPoint: "Anchor-3" 385 497 basechar 0
AnchorPoint: "Anchor-1" 302 796 basechar 0
AnchorPoint: "Anchor-0" 390 0 basechar 0
LayerCount: 2
Fore
SplineSet
252 11 m 128,-1,1
 216 22 216 22 200 53 c 128,-1,2
 184 84 184 84 184 145 c 2,3,-1
 184 585 l 1,4,-1
 69 585 l 1,5,-1
 69 708 l 1,6,-1
 348 708 l 1,7,-1
 348 193 l 2,8,9
 348 164 348 164 352.5 151 c 128,-1,10
 357 138 357 138 370.5 133 c 128,-1,11
 384 128 384 128 413 128 c 2,12,-1
 583 128 l 1,13,-1
 583 0 l 1,14,-1
 355 0 l 2,15,0
 288 0 288 0 252 11 c 128,-1,1
EndSplineSet
EndChar
StartChar: n
Encoding: 110 110 168
Width: 632
GlyphClass: 2
Flags: W
AnchorPoint: "Anchor-1" 317 496 basechar 0
AnchorPoint: "Anchor-0" 317 0 basechar 0
LayerCount: 2
Fore
SplineSet
74 496 m 1,0,-1
 220 496 l 1,1,-1
 238 432 l 1,2,3
 257 462 257 462 298.5 486.5 c 128,-1,4
 340 511 340 511 392 511 c 0,5,6
 481 511 481 511 521 462.5 c 128,-1,7
 561 414 561 414 561 317 c 2,8,-1
 561 0 l 1,9,-1
 397 0 l 1,10,-1
 397 283 l 2,11,12
 397 336 397 336 379.5 361 c 128,-1,13
 362 386 362 386 325 386 c 0,14,15
 280 386 280 386 259 352.5 c 128,-1,16
 238 319 238 319 238 252 c 2,17,-1
 238 0 l 1,18,-1
 74 0 l 1,19,-1
 74 496 l 1,0,-1
EndSplineSet
EndChar
StartChar: o
Encoding: 111 111 173
Width: 632
GlyphClass: 2
Flags: W
AnchorPoint: "Anchor-3" 584 496 basechar 0
AnchorPoint: "Anchor-2" 547 10 basechar 0
AnchorPoint: "Anchor-1" 316 496 basechar 0
AnchorPoint: "Anchor-0" 316 0 basechar 0
LayerCount: 2
Fore
SplineSet
182.5 17.5 m 128,-1,1
 122 47 122 47 85.5 106 c 128,-1,2
 49 165 49 165 49 251 c 256,3,4
 49 337 49 337 85.5 395.5 c 128,-1,5
 122 454 122 454 182.5 482.5 c 128,-1,6
 243 511 243 511 316 511 c 256,7,8
 389 511 389 511 449.5 482.5 c 128,-1,9
 510 454 510 454 546.5 395.5 c 128,-1,10
 583 337 583 337 583 251 c 256,11,12
 583 165 583 165 546.5 106 c 128,-1,13
 510 47 510 47 449.5 17.5 c 128,-1,14
 389 -12 389 -12 316 -12 c 256,15,0
 243 -12 243 -12 182.5 17.5 c 128,-1,1
389 148.5 m 128,-1,17
 416 184 416 184 416 251 c 0,18,19
 416 317 416 317 388.5 351.5 c 128,-1,20
 361 386 361 386 316 386 c 256,21,22
 271 386 271 386 243.5 351.5 c 128,-1,23
 216 317 216 317 216 251 c 0,24,25
 216 184 216 184 243 148.5 c 128,-1,26
 270 113 270 113 316 113 c 256,27,16
 362 113 362 113 389 148.5 c 128,-1,17
EndSplineSet
Substitution2: "Single Substitution lookup 14 subtable" ordmasculine
AlternateSubs2: "'aalt' Access All Alternates in Latin lookup 0 subtable" ordmasculine
EndChar
StartChar: q
Encoding: 113 113 184
Width: 632
GlyphClass: 2
Flags: W
AnchorPoint: "Anchor-1" 320 496 basechar 0
AnchorPoint: "Anchor-0" 320 0 basechar 0
LayerCount: 2
Fore
SplineSet
378 -6 m 2,1,-1
 378 69 l 1,2,3
 357 30 357 30 317 9 c 128,-1,4
 277 -12 277 -12 236 -12 c 0,5,6
 178 -12 178 -12 133 19 c 128,-1,7
 88 50 88 50 63 109 c 128,-1,8
 38 168 38 168 38 248 c 0,9,10
 38 327 38 327 63.5 387 c 128,-1,11
 89 447 89 447 134.5 479 c 128,-1,12
 180 511 180 511 240 511 c 0,13,14
 278 511 278 511 317 490 c 128,-1,15
 356 469 356 469 378 430 c 1,16,-1
 397 496 l 1,17,-1
 542 496 l 1,18,-1
 542 43 l 2,19,20
 542 5 542 5 549 -13 c 128,-1,21
 556 -31 556 -31 584 -31 c 0,22,23
 603 -31 603 -31 632 -21 c 1,24,-1
 632 -156 l 1,25,26
 586 -174 586 -174 532 -174 c 0,27,0
 378 -174 378 -174 378 -6 c 2,1,-1
360.5 148 m 128,-1,29
 386 182 386 182 386 250 c 256,30,31
 386 318 386 318 360.5 352 c 128,-1,32
 335 386 335 386 297 386 c 256,33,34
 259 386 259 386 233 350.5 c 128,-1,35
 207 315 207 315 207 250 c 256,36,37
 207 185 207 185 233 149.5 c 128,-1,38
 259 114 259 114 297 114 c 256,39,28
 335 114 335 114 360.5 148 c 128,-1,29
EndSplineSet
EndChar
StartChar: s
Encoding: 115 115 188
Width: 632
GlyphClass: 2
Flags: W
AnchorPoint: "Anchor-1" 322 496 basechar 0
AnchorPoint: "Anchor-0" 322 0 basechar 0
LayerCount: 2
Fore
SplineSet
161 21 m 128,-1,1
 94 54 94 54 66 114 c 1,2,-1
 204 165 l 1,3,4
 213 136 213 136 245.5 120 c 128,-1,5
 278 104 278 104 323 104 c 0,6,7
 359 104 359 104 385 115.5 c 128,-1,8
 411 127 411 127 411 147 c 0,9,10
 411 159 411 159 395.5 168.5 c 128,-1,11
 380 178 380 178 340 185 c 2,12,-1
 250 201 l 2,13,14
 173 214 173 214 129 251.5 c 128,-1,15
 85 289 85 289 85 347 c 0,16,17
 85 399 85 399 117.5 436 c 128,-1,18
 150 473 150 473 203.5 492 c 128,-1,19
 257 511 257 511 320 511 c 0,20,21
 400 511 400 511 461.5 483 c 128,-1,22
 523 455 523 455 551 394 c 1,23,-1
 413 343 l 1,24,25
 392 396 392 396 318 396 c 0,26,27
 279 396 279 396 259.5 385 c 128,-1,28
 240 374 240 374 240 356 c 0,29,30
 240 342 240 342 252 334.5 c 128,-1,31
 264 327 264 327 297 321 c 2,32,-1
 392 304 l 2,33,34
 486 287 486 287 526 254 c 128,-1,35
 566 221 566 221 566 158 c 0,36,37
 566 75 566 75 497.5 31.5 c 128,-1,38
 429 -12 429 -12 321 -12 c 0,39,0
 228 -12 228 -12 161 21 c 128,-1,1
EndSplineSet
EndChar
StartChar: t
Encoding: 116 116 194
Width: 632
GlyphClass: 2
Flags: W
AnchorPoint: "Anchor-3" 380 554 basechar 0
AnchorPoint: "Anchor-1" 288 496 basechar 0
AnchorPoint: "Anchor-0" 323 0 basechar 0
LayerCount: 2
Fore
SplineSet
255 11 m 128,-1,1
 219 22 219 22 202.5 52.5 c 128,-1,2
 186 83 186 83 186 143 c 2,3,-1
 186 373 l 1,4,-1
 88 373 l 1,5,-1
 88 496 l 1,6,-1
 186 496 l 1,7,-1
 186 620 l 1,8,-1
 350 620 l 1,9,-1
 350 496 l 1,10,-1
 551 496 l 1,11,-1
 551 373 l 1,12,-1
 350 373 l 1,13,-1
 350 183 l 2,14,15
 350 150 350 150 364 139 c 128,-1,16
 378 128 378 128 416 128 c 2,17,-1
 501 128 l 1,18,-1
 501 0 l 1,19,-1
 359 0 l 2,20,0
 291 0 291 0 255 11 c 128,-1,1
EndSplineSet
EndChar
StartChar: u
Encoding: 117 117 198
Width: 632
GlyphClass: 2
Flags: W
AnchorPoint: "Anchor-3" 583 496 basechar 0
AnchorPoint: "Anchor-2" 555 10 basechar 0
AnchorPoint: "Anchor-1" 315 496 basechar 0
AnchorPoint: "Anchor-0" 315 0 basechar 0
LayerCount: 2
Fore
SplineSet
112 40 m 128,-1,1
 73 92 73 92 73 201 c 2,2,-1
 73 496 l 1,3,-1
 237 496 l 1,4,-1
 237 241 l 2,5,6
 237 196 237 196 240.5 171 c 128,-1,7
 244 146 244 146 260 129.5 c 128,-1,8
 276 113 276 113 309 113 c 0,9,10
 354 113 354 113 372.5 141.5 c 128,-1,11
 391 170 391 170 391 237 c 2,12,-1
 391 496 l 1,13,-1
 555 496 l 1,14,-1
 555 0 l 1,15,-1
 412 0 l 1,16,-1
 391 70 l 1,17,18
 367 29 367 29 334.5 8.5 c 128,-1,19
 302 -12 302 -12 248 -12 c 0,20,0
 151 -12 151 -12 112 40 c 128,-1,1
EndSplineSet
EndChar
StartChar: x
Encoding: 120 120 213
Width: 632
GlyphClass: 2
Flags: W
AnchorPoint: "Anchor-1" 317 496 basechar 0
AnchorPoint: "Anchor-0" 317 0 basechar 0
LayerCount: 2
Fore
SplineSet
228 260 m 1,0,-1
 56 496 l 1,1,-1
 235 496 l 1,2,-1
 316 384 l 1,3,-1
 320 384 l 1,4,-1
 399 496 l 1,5,-1
 576 496 l 1,6,-1
 405 260 l 1,7,-1
 592 0 l 1,8,-1
 414 0 l 1,9,-1
 318 136 l 1,10,-1
 314 136 l 1,11,-1
 218 0 l 1,12,-1
 40 0 l 1,13,-1
 228 260 l 1,0,-1
EndSplineSet
EndChar
StartChar: y
Encoding: 121 121 214
Width: 632
GlyphClass: 2
Flags: W
AnchorPoint: "Anchor-1" 316 496 basechar 0
AnchorPoint: "Anchor-0" 316 0 basechar 0
LayerCount: 2
Fore
SplineSet
73 -43 m 1,0,-1
 145 -43 l 2,1,2
 190 -43 190 -43 209 -36 c 128,-1,3
 228 -29 228 -29 236 -8 c 2,4,-1
 241 4 l 1,5,-1
 45 496 l 1,6,-1
 220 496 l 1,7,-1
 315 196 l 1,8,-1
 319 196 l 1,9,-1
 411 496 l 1,10,-1
 587 496 l 1,11,-1
 390 1 l 2,12,13
 363 -67 363 -67 339 -100.5 c 128,-1,14
 315 -134 315 -134 277.5 -148 c 128,-1,15
 240 -162 240 -162 172 -162 c 2,16,-1
 73 -162 l 1,17,-1
 73 -43 l 1,0,-1
EndSplineSet
EndChar
StartChar: braceleft
Encoding: 123 123 270
Width: 632
GlyphClass: 1
Flags: W
LayerCount: 2
Fore
SplineSet
230.5 -122 m 128,-1,1
 188 -82 188 -82 188 5 c 2,2,-1
 188 112 l 2,3,4
 188 149 188 149 180.5 168.5 c 128,-1,5
 173 188 173 188 153.5 196.5 c 128,-1,6
 134 205 134 205 97 207 c 1,7,-1
 97 339 l 1,8,9
 134 341 134 341 153.5 349.5 c 128,-1,10
 173 358 173 358 180.5 377.5 c 128,-1,11
 188 397 188 397 188 434 c 2,12,-1
 188 541 l 2,13,14
 188 628 188 628 230.5 668 c 128,-1,15
 273 708 273 708 369 708 c 2,16,-1
 502 708 l 1,17,-1
 502 580 l 1,18,-1
 399 580 l 2,19,20
 366 580 366 580 354.5 571 c 128,-1,21
 343 562 343 562 343 536 c 2,22,-1
 343 411 l 2,23,24
 343 353 343 353 321 323.5 c 128,-1,25
 299 294 299 294 245 276 c 1,26,-1
 245 270 l 1,27,28
 299 252 299 252 321 222.5 c 128,-1,29
 343 193 343 193 343 135 c 2,30,-1
 343 10 l 2,31,32
 343 -16 343 -16 354.5 -25 c 128,-1,33
 366 -34 366 -34 399 -34 c 2,34,-1
 502 -34 l 1,35,-1
 502 -162 l 1,36,-1
 369 -162 l 2,37,0
 273 -162 273 -162 230.5 -122 c 128,-1,1
EndSplineSet
EndChar
StartChar: bar
Encoding: 124 124 296
Width: 632
GlyphClass: 1
Flags: W
LayerCount: 2
Fore
SplineSet
237 838 m 1,0,-1
 395 838 l 1,1,-1
 395 -162 l 1,2,-1
 237 -162 l 1,3,-1
 237 838 l 1,0,-1
EndSplineSet
EndChar
StartChar: cent
Encoding: 162 162 302
Width: 632
GlyphClass: 1
Flags: W
LayerCount: 2
Fore
SplineSet
138 71.5 m 128,-1,1
 82 143 82 143 82 252 c 0,2,3
 82 320 82 320 108.5 375 c 128,-1,4
 135 430 135 430 185.5 465.5 c 128,-1,5
 236 501 236 501 306 508 c 1,6,-1
 306 586 l 1,7,-1
 384 586 l 1,8,-1
 384 507 l 1,9,10
 448 499 448 499 496 465.5 c 128,-1,11
 544 432 544 432 569 376 c 1,12,-1
 433 328 l 1,13,14
 416 369 416 369 384 381 c 1,15,-1
 384 117 l 1,16,17
 417 125 417 125 434 157 c 1,18,-1
 566 108 l 1,19,20
 539 59 539 59 491 28.5 c 128,-1,21
 443 -2 443 -2 384 -10 c 1,22,-1
 384 -90 l 1,23,-1
 306 -90 l 1,24,-1
 306 -11 l 1,25,0
 194 0 194 0 138 71.5 c 128,-1,1
262.5 329 m 128,-1,27
 248 295 248 295 248 250 c 0,28,29
 248 204 248 204 262 170 c 128,-1,30
 276 136 276 136 306 122 c 1,31,-1
 306 377 l 1,32,26
 277 363 277 363 262.5 329 c 128,-1,27
EndSplineSet
EndChar
StartChar: sterling
Encoding: 163 163 307
Width: 632
GlyphClass: 1
Flags: W
LayerCount: 2
Fore
SplineSet
145.5 175.5 m 128,-1,1
 173 206 173 206 173 253 c 0,2,3
 173 273 173 273 164 291 c 1,4,-1
 51 291 l 1,5,-1
 51 369 l 1,6,-1
 123 369 l 1,7,8
 105 401 105 401 93.5 436 c 128,-1,9
 82 471 82 471 82 502 c 0,10,11
 82 557 82 557 115 597 c 128,-1,12
 148 637 148 637 206.5 658 c 128,-1,13
 265 679 265 679 339 679 c 0,14,15
 427 679 427 679 496.5 641 c 128,-1,16
 566 603 566 603 597 535 c 1,17,-1
 451 480 l 1,18,19
 440 515 440 515 409.5 532 c 128,-1,20
 379 549 379 549 342 549 c 0,21,22
 302 549 302 549 278 531.5 c 128,-1,23
 254 514 254 514 254 487 c 0,24,25
 254 464 254 464 264 441.5 c 128,-1,26
 274 419 274 419 301 369 c 1,27,-1
 454 369 l 1,28,-1
 454 291 l 1,29,-1
 336 291 l 1,30,31
 343 274 343 274 343 258 c 0,32,33
 343 219 343 219 313.5 184 c 128,-1,34
 284 149 284 149 236 120 c 1,35,36
 270 139 270 139 324 139 c 0,37,38
 352 139 352 139 402 129 c 0,39,40
 446 121 446 121 463 121 c 0,41,42
 514 121 514 121 565 153 c 1,43,-1
 612 24 l 1,44,45
 576 6 576 6 536.5 -3 c 128,-1,46
 497 -12 497 -12 446 -12 c 0,47,48
 407 -12 407 -12 342 7 c 0,49,50
 317 13 317 13 291.5 18.5 c 128,-1,51
 266 24 266 24 245 24 c 0,52,53
 174 24 174 24 110 -12 c 1,54,-1
 51 112 l 1,55,0
 118 145 118 145 145.5 175.5 c 128,-1,1
EndSplineSet
EndChar
StartChar: currency
Encoding: 164 164 303
Width: 632
GlyphClass: 1
Flags: W
LayerCount: 2
Fore
SplineSet
70 129 m 1,0,-1
 137 196 l 1,1,2
 97 252 97 252 97 320 c 256,3,4
 97 388 97 388 137 444 c 1,5,-1
 70 511 l 1,6,-1
 125 566 l 1,7,-1
 192 499 l 1,8,9
 251 539 251 539 316 539 c 256,10,11
 381 539 381 539 440 499 c 1,12,-1
 507 566 l 1,13,-1
 562 511 l 1,14,-1
 495 444 l 1,15,16
 535 388 535 388 535 320 c 256,17,18
 535 252 535 252 495 196 c 1,19,-1
 562 129 l 1,20,-1
 507 74 l 1,21,-1
 440 141 l 1,22,23
 381 101 381 101 316 101 c 256,24,25
 251 101 251 101 192 141 c 1,26,-1
 125 74 l 1,27,-1
 70 129 l 1,0,-1
380 255 m 128,-1,29
 407 282 407 282 407 320 c 256,30,31
 407 358 407 358 380 385 c 128,-1,32
 353 412 353 412 316 412 c 256,33,34
 279 412 279 412 252 385 c 128,-1,35
 225 358 225 358 225 320 c 256,36,37
 225 282 225 282 252 255 c 128,-1,38
 279 228 279 228 316 228 c 256,39,28
 353 228 353 228 380 255 c 128,-1,29
EndSplineSet
EndChar
StartChar: brokenbar
Encoding: 166 166 297
Width: 632
GlyphClass: 1
Flags: W
LayerCount: 2
Fore
SplineSet
247 233 m 1,0,-1
 385 233 l 1,1,-1
 385 -162 l 1,2,-1
 247 -162 l 1,3,-1
 247 233 l 1,0,-1
247 838 m 1,4,-1
 385 838 l 1,5,-1
 385 443 l 1,6,-1
 247 443 l 1,7,-1
 247 838 l 1,4,-1
EndSplineSet
EndChar
StartChar: copyright
Encoding: 169 169 292
Width: 632
GlyphClass: 1
Flags: W
LayerCount: 2
Fore
SplineSet
164.5 33.5 m 128,-1,1
 97 80 97 80 58.5 159 c 128,-1,2
 20 238 20 238 20 333 c 256,3,4
 20 428 20 428 58.5 507 c 128,-1,5
 97 586 97 586 164.5 632.5 c 128,-1,6
 232 679 232 679 316 679 c 256,7,8
 400 679 400 679 467.5 632.5 c 128,-1,9
 535 586 535 586 573.5 507 c 128,-1,10
 612 428 612 428 612 333 c 256,11,12
 612 238 612 238 573.5 159 c 128,-1,13
 535 80 535 80 467.5 33.5 c 128,-1,14
 400 -13 400 -13 316 -13 c 256,15,0
 232 -13 232 -13 164.5 33.5 c 128,-1,1
199 195 m 128,-1,17
 158 247 158 247 158 335 c 0,18,19
 158 421 158 421 201.5 473.5 c 128,-1,20
 245 526 245 526 315 526 c 0,21,22
 360 526 360 526 398 503.5 c 128,-1,23
 436 481 436 481 456 430 c 1,24,-1
 374 394 l 1,25,26
 360 436 360 436 322 436 c 0,27,28
 295 436 295 436 276.5 412 c 128,-1,29
 258 388 258 388 258 335 c 0,30,31
 258 281 258 281 277 257 c 128,-1,32
 296 233 296 233 322 233 c 0,33,34
 341 233 341 233 354.5 241.5 c 128,-1,35
 368 250 368 250 375 265 c 1,36,-1
 455 230 l 1,37,38
 432 184 432 184 394 163.5 c 128,-1,39
 356 143 356 143 315 143 c 0,40,16
 240 143 240 143 199 195 c 128,-1,17
433 83.5 m 128,-1,42
 486 120 486 120 516 185.5 c 128,-1,43
 546 251 546 251 546 333 c 256,44,45
 546 415 546 415 516 480.5 c 128,-1,46
 486 546 486 546 433 582.5 c 128,-1,47
 380 619 380 619 316 619 c 256,48,49
 252 619 252 619 199 582.5 c 128,-1,50
 146 546 146 546 116 480.5 c 128,-1,51
 86 415 86 415 86 333 c 256,52,53
 86 251 86 251 116 185.5 c 128,-1,54
 146 120 146 120 199 83.5 c 128,-1,55
 252 47 252 47 316 47 c 256,56,41
 380 47 380 47 433 83.5 c 128,-1,42
EndSplineSet
EndChar
StartChar: guillemotleft
Encoding: 171 171 280
Width: 632
GlyphClass: 1
Flags: W
LayerCount: 2
Fore
SplineSet
272 250 m 1,0,-1
 420 460 l 1,1,-1
 607 460 l 1,2,-1
 458 250 l 1,3,-1
 607 40 l 1,4,-1
 420 40 l 1,5,-1
 272 250 l 1,0,-1
26 250 m 1,6,-1
 174 460 l 1,7,-1
 361 460 l 1,8,-1
 212 250 l 1,9,-1
 361 40 l 1,10,-1
 174 40 l 1,11,-1
 26 250 l 1,6,-1
EndSplineSet
EndChar
StartChar: registered
Encoding: 174 174 293
Width: 632
GlyphClass: 1
Flags: W
LayerCount: 2
Fore
SplineSet
164.5 33.5 m 128,-1,1
 97 80 97 80 58.5 159 c 128,-1,2
 20 238 20 238 20 333 c 256,3,4
 20 428 20 428 58.5 507 c 128,-1,5
 97 586 97 586 164.5 632.5 c 128,-1,6
 232 679 232 679 316 679 c 256,7,8
 400 679 400 679 467.5 632.5 c 128,-1,9
 535 586 535 586 573.5 507 c 128,-1,10
 612 428 612 428 612 333 c 256,11,12
 612 238 612 238 573.5 159 c 128,-1,13
 535 80 535 80 467.5 33.5 c 128,-1,14
 400 -13 400 -13 316 -13 c 256,15,0
 232 -13 232 -13 164.5 33.5 c 128,-1,1
433 83.5 m 128,-1,17
 486 120 486 120 516 185.5 c 128,-1,18
 546 251 546 251 546 333 c 256,19,20
 546 415 546 415 516 480.5 c 128,-1,21
 486 546 486 546 433 582.5 c 128,-1,22
 380 619 380 619 316 619 c 256,23,24
 252 619 252 619 199 582.5 c 128,-1,25
 146 546 146 546 116 480.5 c 128,-1,26
 86 415 86 415 86 333 c 256,27,28
 86 251 86 251 116 185.5 c 128,-1,29
 146 120 146 120 199 83.5 c 128,-1,30
 252 47 252 47 316 47 c 256,31,16
 380 47 380 47 433 83.5 c 128,-1,17
177 529 m 1,32,-1
 312 529 l 2,33,34
 378 529 378 529 416.5 503 c 128,-1,35
 455 477 455 477 455 415 c 0,36,37
 455 333 455 333 379 310 c 1,38,-1
 472 162 l 1,39,-1
 375 162 l 1,40,-1
 291 300 l 1,41,-1
 263 300 l 1,42,-1
 263 162 l 1,43,-1
 177 162 l 1,44,-1
 177 529 l 1,32,-1
348.5 385.5 m 128,-1,46
 363 393 363 393 363 414 c 256,47,48
 363 435 363 435 348.5 442.5 c 128,-1,49
 334 450 334 450 308 450 c 2,50,-1
 263 450 l 1,51,-1
 263 378 l 1,52,-1
 307 378 l 2,53,45
 334 378 334 378 348.5 385.5 c 128,-1,46
EndSplineSet
EndChar
StartChar: plusminus
Encoding: 177 177 321
Width: 632
GlyphClass: 1
Flags: W
LayerCount: 2
Fore
SplineSet
248 285 m 1,0,-1
 57 285 l 1,1,-1
 57 398 l 1,2,-1
 248 398 l 1,3,-1
 248 496 l 1,4,-1
 385 496 l 1,5,-1
 385 398 l 1,6,-1
 575 398 l 1,7,-1
 575 285 l 1,8,-1
 385 285 l 1,9,-1
 385 190 l 1,10,-1
 248 190 l 1,11,-1
 248 285 l 1,0,-1
57 136 m 1,12,-1
 575 136 l 1,13,-1
 575 0 l 1,14,-1
 57 0 l 1,15,-1
 57 136 l 1,12,-1
EndSplineSet
EndChar
StartChar: uni00B3
Encoding: 179 179 246
Width: 632
GlyphClass: 1
Flags: W
LayerCount: 2
Fore
SplineSet
211 380.5 m 128,-1,1
 169 404 169 404 149 449 c 1,2,-1
 245 483 l 1,3,4
 252 461 252 461 270.5 449.5 c 128,-1,5
 289 438 289 438 314 438 c 0,6,7
 343 438 343 438 358 450.5 c 128,-1,8
 373 463 373 463 373 485 c 0,9,10
 373 512 373 512 349.5 522 c 128,-1,11
 326 532 326 532 273 532 c 1,12,-1
 273 621 l 1,13,14
 320 621 320 621 342 631 c 128,-1,15
 364 641 364 641 364 664 c 0,16,17
 364 684 364 684 348.5 694.5 c 128,-1,18
 333 705 333 705 310 705 c 0,19,20
 289 705 289 705 272 695.5 c 128,-1,21
 255 686 255 686 249 667 c 1,22,-1
 154 700 l 1,23,24
 173 742 173 742 214.5 764 c 128,-1,25
 256 786 256 786 315 786 c 0,26,27
 385 786 385 786 428.5 757 c 128,-1,28
 472 728 472 728 472 675 c 0,29,30
 472 643 472 643 456.5 618.5 c 128,-1,31
 441 594 441 594 418 583 c 1,32,33
 448 571 448 571 466 544.5 c 128,-1,34
 484 518 484 518 484 483 c 0,35,36
 484 423 484 423 434.5 390 c 128,-1,37
 385 357 385 357 313 357 c 0,38,0
 253 357 253 357 211 380.5 c 128,-1,1
EndSplineSet
EndChar
StartChar: uni00B9
Encoding: 185 185 244
Width: 632
GlyphClass: 1
Flags: W
LayerCount: 2
Fore
SplineSet
311 640 m 1,0,-1
 219 640 l 1,1,-1
 219 729 l 1,2,3
 270 729 270 729 297 738.5 c 128,-1,4
 324 748 324 748 334 779 c 1,5,-1
 418 779 l 1,6,-1
 418 364 l 1,7,-1
 311 364 l 1,8,-1
 311 640 l 1,0,-1
EndSplineSet
EndChar
StartChar: threequarters
Encoding: 190 190 243
Width: 632
GlyphClass: 3
Flags: W
LayerCount: 2
Fore
SplineSet
452 668 m 1,0,-1
 572 668 l 1,1,-1
 212 0 l 1,2,-1
 92 0 l 1,3,-1
 452 668 l 1,0,-1
485 57 m 1,4,-1
 330 57 l 1,5,-1
 330 134 l 1,6,-1
 474 311 l 1,7,-1
 577 311 l 1,8,-1
 577 140 l 1,9,-1
 622 140 l 1,10,-1
 622 57 l 1,11,-1
 577 57 l 1,12,-1
 577 0 l 1,13,-1
 485 0 l 1,14,-1
 485 57 l 1,4,-1
486 140 m 1,15,-1
 486 207 l 1,16,-1
 484 207 l 1,17,-1
 432 140 l 1,18,-1
 486 140 l 1,15,-1
61 374 m 128,-1,20
 27 390 27 390 10 423 c 1,21,-1
 100 456 l 1,22,23
 108 433 108 433 144 433 c 0,24,25
 159 433 159 433 167.5 440 c 128,-1,26
 176 447 176 447 176 456 c 0,27,28
 176 468 176 468 162 474 c 128,-1,29
 148 480 148 480 112 479 c 1,30,-1
 112 560 l 1,31,32
 147 559 147 559 159 566 c 128,-1,33
 171 573 171 573 171 586 c 0,34,35
 171 595 171 595 162.5 600.5 c 128,-1,36
 154 606 154 606 139 606 c 0,37,38
 127 606 127 606 116.5 601 c 128,-1,39
 106 596 106 596 101 587 c 1,40,-1
 14 620 l 1,41,42
 46 680 46 680 145 680 c 0,43,44
 202 680 202 680 235.5 656.5 c 128,-1,45
 269 633 269 633 269 596 c 0,46,47
 269 572 269 572 258 553 c 128,-1,48
 247 534 247 534 232 527 c 1,49,50
 253 519 253 519 266 501 c 128,-1,51
 279 483 279 483 279 460 c 0,52,53
 279 415 279 415 239 386.5 c 128,-1,54
 199 358 199 358 142 358 c 0,55,19
 95 358 95 358 61 374 c 128,-1,20
EndSplineSet
Ligature2: "'frac' Diagonal Fractions in Latin lookup 7 subtable" three slash four
EndChar
StartChar: questiondown
Encoding: 191 191 257
Width: 632
GlyphClass: 1
Flags: W
LayerCount: 2
Fore
SplineSet
182.5 -161.5 m 128,-1,1
 123 -141 123 -141 87 -101 c 128,-1,2
 51 -61 51 -61 51 -5 c 0,3,4
 51 55 51 55 85 90.5 c 128,-1,5
 119 126 119 126 184 154 c 0,6,7
 239 178 239 178 257.5 198 c 128,-1,8
 276 218 276 218 276 242 c 2,9,-1
 276 258 l 1,10,-1
 441 258 l 1,11,-1
 441 243 l 2,12,13
 441 172 441 172 411.5 131 c 128,-1,14
 382 90 382 90 316 68 c 0,15,16
 266 51 266 51 243.5 35 c 128,-1,17
 221 19 221 19 221 -2 c 0,18,19
 221 -24 221 -24 246.5 -38.5 c 128,-1,20
 272 -53 272 -53 314 -53 c 0,21,22
 357 -53 357 -53 392 -35 c 128,-1,23
 427 -17 427 -17 443 18 c 1,24,-1
 589 -37 l 1,25,26
 559 -107 559 -107 486.5 -144.5 c 128,-1,27
 414 -182 414 -182 312 -182 c 0,28,0
 242 -182 242 -182 182.5 -161.5 c 128,-1,1
283.5 334 m 128,-1,30
 253 364 253 364 253 407 c 0,31,32
 253 449 253 449 283.5 479.5 c 128,-1,33
 314 510 314 510 356 510 c 0,34,35
 399 510 399 510 429 479.5 c 128,-1,36
 459 449 459 449 459 407 c 0,37,38
 459 364 459 364 429.5 334 c 128,-1,39
 400 304 400 304 356 304 c 0,40,29
 314 304 314 304 283.5 334 c 128,-1,30
EndSplineSet
EndChar
StartChar: AE
Encoding: 198 198 12
Width: 632
GlyphClass: 2
Flags: W
AnchorPoint: "Anchor-1" 349 668 basechar 0
AnchorPoint: "Anchor-0" 349 0 basechar 0
LayerCount: 2
Fore
SplineSet
226 668 m 1,0,-1
 628 668 l 1,1,-1
 628 539 l 1,2,-1
 438 539 l 1,3,-1
 438 408 l 1,4,-1
 533 408 l 1,5,-1
 533 279 l 1,6,-1
 438 279 l 1,7,-1
 438 129 l 1,8,-1
 628 129 l 1,9,-1
 628 0 l 1,10,-1
 309 0 l 1,11,-1
 309 124 l 1,12,-1
 180 124 l 1,13,-1
 141 0 l 1,14,-1
 5 0 l 1,15,-1
 226 668 l 1,0,-1
309 241 m 1,16,-1
 309 530 l 1,17,-1
 305 530 l 1,18,-1
 215 241 l 1,19,-1
 309 241 l 1,16,-1
EndSplineSet
EndChar
StartChar: Ccedilla
Encoding: 199 199 17
Width: 632
GlyphClass: 2
Flags: W
AnchorPoint: "Anchor-1" 339 668 basechar 0
LayerCount: 2
Fore
SplineSet
240 -176 m 1,1,-1
 256 -124 l 1,2,3
 264 -128 264 -128 282 -132 c 128,-1,4
 300 -136 300 -136 318 -136 c 0,5,6
 361 -136 361 -136 361 -111 c 0,7,8
 361 -99 361 -99 350.5 -92 c 128,-1,9
 340 -85 340 -85 323 -85 c 0,10,11
 312 -85 312 -85 297 -90 c 2,12,-1
 289 -91 l 2,13,14
 280 -91 280 -91 274.5 -85.5 c 128,-1,15
 269 -80 269 -80 269 -71 c 0,16,17
 269 -65 269 -65 272 -59 c 2,18,-1
 302 -10 l 1,19,20
 185 3 185 3 118.5 93.5 c 128,-1,21
 52 184 52 184 52 334 c 0,22,23
 52 439 52 439 87.5 517 c 128,-1,24
 123 595 123 595 188 637.5 c 128,-1,25
 253 680 253 680 340 680 c 0,26,27
 421 680 421 680 482.5 637.5 c 128,-1,28
 544 595 544 595 577 520 c 1,29,-1
 445 471 l 1,30,31
 415 546 415 546 344 546 c 0,32,33
 287 546 287 546 251.5 489 c 128,-1,34
 216 432 216 432 216 334 c 0,35,36
 216 233 216 233 253 177.5 c 128,-1,37
 290 122 290 122 349 122 c 0,38,39
 378 122 378 122 406.5 138.5 c 128,-1,40
 435 155 435 155 452 196 c 1,41,-1
 580 148 l 1,42,43
 547 79 547 79 490.5 37 c 128,-1,44
 434 -5 434 -5 361 -11 c 1,45,-1
 337 -49 l 1,46,47
 349 -46 349 -46 371 -46 c 0,48,49
 406 -46 406 -46 433.5 -60.5 c 128,-1,50
 461 -75 461 -75 461 -108 c 0,51,52
 461 -151 461 -151 422.5 -169.5 c 128,-1,53
 384 -188 384 -188 328 -188 c 0,54,0
 279 -188 279 -188 240 -176 c 1,1,-1
EndSplineSet
EndChar
StartChar: Oslash
Encoding: 216 216 68
Width: 632
GlyphClass: 2
Flags: W
AnchorPoint: "Anchor-3" 602 668 basechar 0
AnchorPoint: "Anchor-2" 557 10 basechar 0
AnchorPoint: "Anchor-1" 317 668 basechar 0
AnchorPoint: "Anchor-0" 317 0 basechar 0
LayerCount: 2
Fore
SplineSet
160 35 m 1,1,-1
 127 -13 l 1,2,-1
 63 32 l 1,3,-1
 104 91 l 1,4,5
 36 182 36 182 36 334 c 0,6,7
 36 440 36 440 70 518 c 128,-1,8
 104 596 104 596 167 638 c 128,-1,9
 230 680 230 680 316 680 c 0,10,11
 407 680 407 680 472 633 c 1,12,-1
 504 680 l 1,13,-1
 569 635 l 1,14,-1
 529 577 l 1,15,16
 596 484 596 484 596 334 c 0,17,18
 596 228 596 228 562 150 c 128,-1,19
 528 72 528 72 465 30 c 128,-1,20
 402 -12 402 -12 316 -12 c 0,21,0
 224 -12 224 -12 160 35 c 1,1,-1
401 176.5 m 128,-1,23
 432 231 432 231 432 334 c 0,24,25
 432 379 432 379 425 424 c 1,26,-1
 243 158 l 1,27,28
 272 122 272 122 316 122 c 0,29,22
 370 122 370 122 401 176.5 c 128,-1,23
316 546 m 0,31,32
 262 546 262 546 231 491.5 c 128,-1,33
 200 437 200 437 200 334 c 0,34,35
 200 290 200 290 207 244 c 1,36,-1
 389 510 l 1,37,30
 361 546 361 546 316 546 c 0,31,32
EndSplineSet
EndChar
StartChar: ccedilla
Encoding: 231 231 127
Width: 632
GlyphClass: 2
Flags: W
AnchorPoint: "Anchor-1" 351 496 basechar 0
LayerCount: 2
Fore
SplineSet
242 -176 m 1,1,-1
 258 -124 l 1,2,3
 266 -128 266 -128 284 -132 c 128,-1,4
 302 -136 302 -136 320 -136 c 0,5,6
 363 -136 363 -136 363 -111 c 0,7,8
 363 -99 363 -99 352.5 -92 c 128,-1,9
 342 -85 342 -85 325 -85 c 0,10,11
 314 -85 314 -85 299 -90 c 2,12,-1
 291 -91 l 2,13,14
 282 -91 282 -91 276.5 -85.5 c 128,-1,15
 271 -80 271 -80 271 -71 c 0,16,17
 271 -65 271 -65 274 -59 c 2,18,-1
 304 -11 l 1,19,20
 189 -1 189 -1 129.5 69 c 128,-1,21
 70 139 70 139 70 252 c 0,22,23
 70 329 70 329 104.5 388 c 128,-1,24
 139 447 139 447 200 479 c 128,-1,25
 261 511 261 511 338 511 c 0,26,27
 421 511 421 511 485.5 478 c 128,-1,28
 550 445 550 445 581 378 c 1,29,-1
 445 328 l 1,30,31
 423 386 423 386 351 386 c 0,32,33
 304 386 304 386 270.5 353 c 128,-1,34
 237 320 237 320 237 251 c 0,35,36
 237 179 237 179 271 146 c 128,-1,37
 305 113 305 113 351 113 c 0,38,39
 383 113 383 113 408 125 c 128,-1,40
 433 137 433 137 446 158 c 1,41,-1
 578 110 l 1,42,43
 548 56 548 56 491 25 c 128,-1,44
 434 -6 434 -6 363 -11 c 1,45,-1
 339 -49 l 1,46,47
 351 -46 351 -46 373 -46 c 0,48,49
 408 -46 408 -46 435.5 -60.5 c 128,-1,50
 463 -75 463 -75 463 -108 c 0,51,52
 463 -151 463 -151 424.5 -169.5 c 128,-1,53
 386 -188 386 -188 330 -188 c 0,54,0
 281 -188 281 -188 242 -176 c 1,1,-1
EndSplineSet
EndChar
StartChar: oslash
Encoding: 248 248 179
Width: 632
GlyphClass: 2
Flags: W
AnchorPoint: "Anchor-3" 584 496 basechar 0
AnchorPoint: "Anchor-2" 547 10 basechar 0
AnchorPoint: "Anchor-1" 316 496 basechar 0
AnchorPoint: "Anchor-0" 316 0 basechar 0
LayerCount: 2
Fore
SplineSet
172 23 m 1,1,-1
 126 -30 l 1,2,-1
 67 21 l 1,3,-1
 111 72 l 1,4,5
 49 141 49 141 49 251 c 0,6,7
 49 337 49 337 85.5 395.5 c 128,-1,8
 122 454 122 454 182.5 482.5 c 128,-1,9
 243 511 243 511 316 511 c 0,10,11
 398 511 398 511 461 476 c 1,12,-1
 504 526 l 1,13,-1
 563 475 l 1,14,-1
 522 428 l 1,15,16
 583 361 583 361 583 251 c 0,17,18
 583 165 583 165 546.5 106 c 128,-1,19
 510 47 510 47 449.5 17.5 c 128,-1,20
 389 -12 389 -12 316 -12 c 0,21,0
 233 -12 233 -12 172 23 c 1,1,-1
389 148.5 m 128,-1,23
 416 184 416 184 416 251 c 0,24,25
 416 277 416 277 411 300 c 1,26,-1
 263 129 l 1,27,28
 285 113 285 113 316 113 c 0,29,22
 362 113 362 113 389 148.5 c 128,-1,23
316 386 m 0,31,32
 271 386 271 386 243.5 351.5 c 128,-1,33
 216 317 216 317 216 251 c 0,34,35
 216 224 216 224 221 199 c 1,36,-1
 370 369 l 1,37,30
 349 386 349 386 316 386 c 0,31,32
EndSplineSet
EndChar
StartChar: thorn
Encoding: 254 254 183
Width: 632
GlyphClass: 2
Flags: W
AnchorPoint: "Anchor-1" 315 496 basechar 0
AnchorPoint: "Anchor-0" 315 0 basechar 0
LayerCount: 2
Fore
SplineSet
60 708 m 1,0,-1
 224 708 l 1,1,-1
 224 430 l 1,2,3
 247 468 247 468 290.5 489.5 c 128,-1,4
 334 511 334 511 374 511 c 0,5,6
 439 511 439 511 489 478.5 c 128,-1,7
 539 446 539 446 566.5 386 c 128,-1,8
 594 326 594 326 594 247 c 0,9,10
 594 167 594 167 566.5 108.5 c 128,-1,11
 539 50 539 50 489 19 c 128,-1,12
 439 -12 439 -12 374 -12 c 0,13,14
 334 -12 334 -12 290.5 9.5 c 128,-1,15
 247 31 247 31 224 69 c 1,16,-1
 224 -162 l 1,17,-1
 60 -162 l 1,18,-1
 60 708 l 1,0,-1
395 149 m 128,-1,20
 425 184 425 184 425 247 c 256,21,22
 425 310 425 310 395 347.5 c 128,-1,23
 365 385 365 385 321 385 c 0,24,25
 275 385 275 385 245.5 353 c 128,-1,26
 216 321 216 321 216 252 c 0,27,28
 216 182 216 182 246 148 c 128,-1,29
 276 114 276 114 321 114 c 0,30,19
 365 114 365 114 395 149 c 128,-1,20
EndSplineSet
EndChar
StartChar: Aogonek
Encoding: 260 260 9
Width: 632
GlyphClass: 2
Flags: W
AnchorPoint: "Anchor-1" 316 668 basechar 0
LayerCount: 2
Fore
SplineSet
227 668 m 1,0,-1
 405 668 l 1,1,-1
 601 0 l 1,2,3
 571 -2 571 -2 538 -21.5 c 128,-1,4
 505 -41 505 -41 505 -64 c 0,5,6
 505 -79 505 -79 517 -87 c 128,-1,7
 529 -95 529 -95 547 -95 c 0,8,9
 570 -95 570 -95 601 -86 c 1,10,-1
 601 -167 l 1,11,12
 590 -170 590 -170 564 -173 c 128,-1,13
 538 -176 538 -176 519 -176 c 0,14,15
 438 -176 438 -176 403.5 -147.5 c 128,-1,16
 369 -119 369 -119 369 -84 c 0,17,18
 369 -54 369 -54 390 -31.5 c 128,-1,19
 411 -9 411 -9 444 4 c 1,20,-1
 415 114 l 1,21,-1
 209 114 l 1,22,-1
 179 0 l 1,23,-1
 31 0 l 1,24,-1
 227 668 l 1,0,-1
379 251 m 1,25,-1
 314 496 l 1,26,-1
 310 496 l 1,27,-1
 245 251 l 1,28,-1
 379 251 l 1,25,-1
EndSplineSet
EndChar
StartChar: aogonek
Encoding: 261 261 119
Width: 632
GlyphClass: 2
Flags: W
AnchorPoint: "Anchor-1" 316 496 basechar 0
LayerCount: 2
Fore
SplineSet
367 -147.5 m 128,-1,1
 332 -119 332 -119 332 -84 c 0,2,3
 332 -50 332 -50 354 -28 c 128,-1,4
 376 -6 376 -6 412 11 c 1,5,-1
 397 59 l 1,6,7
 370 20 370 20 327.5 4 c 128,-1,8
 285 -12 285 -12 228 -12 c 0,9,10
 153 -12 153 -12 104.5 28 c 128,-1,11
 56 68 56 68 56 134 c 0,12,13
 56 221 56 221 140 263 c 128,-1,14
 224 305 224 305 392 314 c 1,15,-1
 392 328 l 2,16,17
 392 404 392 404 306 404 c 0,18,19
 276 404 276 404 252 387.5 c 128,-1,20
 228 371 228 371 220 346 c 1,21,-1
 84 394 l 1,22,23
 110 446 110 446 170.5 478.5 c 128,-1,24
 231 511 231 511 315 511 c 0,25,26
 427 511 427 511 487 462 c 128,-1,27
 547 413 547 413 547 312 c 2,28,-1
 547 185 l 2,29,30
 547 131 547 131 552 79.5 c 128,-1,31
 557 28 557 28 565 0 c 1,32,33
 516 -9 516 -9 492 -27 c 128,-1,34
 468 -45 468 -45 468 -65 c 0,35,36
 468 -81 468 -81 481.5 -88 c 128,-1,37
 495 -95 495 -95 514 -95 c 0,38,39
 536 -95 536 -95 565 -86 c 1,40,-1
 565 -167 l 1,41,42
 553 -170 553 -170 527.5 -173 c 128,-1,43
 502 -176 502 -176 483 -176 c 0,44,0
 402 -176 402 -176 367 -147.5 c 128,-1,1
365.5 119.5 m 128,-1,46
 392 145 392 145 392 204 c 2,47,-1
 392 220 l 1,48,49
 307 215 307 215 265 198 c 128,-1,50
 223 181 223 181 223 148 c 0,51,52
 223 125 223 125 241.5 109.5 c 128,-1,53
 260 94 260 94 289 94 c 0,54,45
 339 94 339 94 365.5 119.5 c 128,-1,46
EndSplineSet
EndChar
StartChar: dcaron
Encoding: 271 271 130
Width: 632
GlyphClass: 1
Flags: W
LayerCount: 2
Fore
SplineSet
100 20.5 m 128,-1,1
 55 53 55 53 30 113 c 128,-1,2
 5 173 5 173 5 253 c 256,3,4
 5 333 5 333 30 391 c 128,-1,5
 55 449 55 449 100 480 c 128,-1,6
 145 511 145 511 204 511 c 0,7,8
 238 511 238 511 272.5 494.5 c 128,-1,9
 307 478 307 478 330 446 c 1,10,-1
 330 708 l 1,11,-1
 489 708 l 1,12,-1
 489 195 l 2,13,14
 489 88 489 88 504 0 c 1,15,-1
 352 0 l 1,16,-1
 338 54 l 1,17,18
 310 20 310 20 275 4 c 128,-1,19
 240 -12 240 -12 204 -12 c 0,20,0
 145 -12 145 -12 100 20.5 c 128,-1,1
314.5 146.5 m 128,-1,22
 338 179 338 179 338 250 c 0,23,24
 338 319 338 319 314 352.5 c 128,-1,25
 290 386 290 386 253 386 c 256,26,27
 216 386 216 386 192 351 c 128,-1,28
 168 316 168 316 168 253 c 256,29,30
 168 190 168 190 192.5 152 c 128,-1,31
 217 114 217 114 253 114 c 0,32,21
 291 114 291 114 314.5 146.5 c 128,-1,22
554 703.5 m 128,-1,34
 569 718 569 718 588 718 c 0,35,36
 610 718 610 718 621 705 c 128,-1,37
 632 692 632 692 632 670 c 0,38,39
 632 643 632 643 616 606 c 2,40,-1
 582 524 l 1,41,-1
 513 524 l 1,42,-1
 534 658 l 2,43,33
 539 689 539 689 554 703.5 c 128,-1,34
EndSplineSet
EndChar
StartChar: uni0123
Encoding: 291 291 145
Width: 632
GlyphClass: 2
Flags: W
AnchorPoint: "Anchor-1" 330 774 basechar 0
AnchorPoint: "Anchor-0" 321 -251 basechar 0
LayerCount: 2
Fore
SplineSet
183.5 -179 m 128,-1,1
 123 -153 123 -153 89 -93 c 1,2,-1
 218 -34 l 1,3,4
 249 -82 249 -82 318 -82 c 0,5,6
 357 -82 357 -82 384.5 -61 c 128,-1,7
 412 -40 412 -40 412 9 c 2,8,-1
 412 96 l 1,9,10
 380 58 380 58 338 39 c 128,-1,11
 296 20 296 20 254 20 c 0,12,13
 199 20 199 20 150 49.5 c 128,-1,14
 101 79 101 79 70.5 133.5 c 128,-1,15
 40 188 40 188 40 260 c 0,16,17
 40 343 40 343 70 399.5 c 128,-1,18
 100 456 100 456 147.5 483.5 c 128,-1,19
 195 511 195 511 248 511 c 0,20,21
 296 511 296 511 340 490 c 128,-1,22
 384 469 384 469 412 430 c 1,23,-1
 432 496 l 1,24,-1
 575 496 l 1,25,-1
 575 42 l 2,26,27
 575 -86 575 -86 506.5 -145.5 c 128,-1,28
 438 -205 438 -205 315 -205 c 0,29,0
 244 -205 244 -205 183.5 -179 c 128,-1,1
390 173.5 m 128,-1,31
 419 201 419 201 419 264 c 0,32,33
 419 328 419 328 390 357 c 128,-1,34
 361 386 361 386 314 386 c 0,35,36
 269 386 269 386 239 356.5 c 128,-1,37
 209 327 209 327 209 269 c 0,38,39
 209 209 209 209 239 177.5 c 128,-1,40
 269 146 269 146 314 146 c 0,41,30
 361 146 361 146 390 173.5 c 128,-1,31
215 664 m 0,43,44
 215 712 215 712 261.5 743 c 128,-1,45
 308 774 308 774 391 774 c 1,46,-1
 445 727 l 1,47,48
 395 727 395 727 368.5 711 c 128,-1,49
 342 695 342 695 342 668 c 0,50,51
 342 647 342 647 362.5 631 c 128,-1,52
 383 615 383 615 412 609 c 1,53,-1
 303 566 l 1,54,42
 215 601 215 601 215 664 c 0,43,44
EndSplineSet
EndChar
StartChar: hbar
Encoding: 295 295 148
Width: 632
GlyphClass: 1
Flags: W
LayerCount: 2
Fore
SplineSet
76 544 m 1,0,-1
 21 544 l 1,1,-1
 21 624 l 1,2,-1
 76 624 l 1,3,-1
 76 708 l 1,4,-1
 240 708 l 1,5,-1
 240 624 l 1,6,-1
 377 624 l 1,7,-1
 377 544 l 1,8,-1
 240 544 l 1,9,-1
 240 432 l 1,10,11
 258 462 258 462 300 486.5 c 128,-1,12
 342 511 342 511 394 511 c 0,13,14
 483 511 483 511 523 463 c 128,-1,15
 563 415 563 415 563 317 c 2,16,-1
 563 0 l 1,17,-1
 399 0 l 1,18,-1
 399 282 l 2,19,20
 399 335 399 335 381.5 360.5 c 128,-1,21
 364 386 364 386 327 386 c 0,22,23
 282 386 282 386 261 352.5 c 128,-1,24
 240 319 240 319 240 252 c 2,25,-1
 240 0 l 1,26,-1
 76 0 l 1,27,-1
 76 544 l 1,0,-1
EndSplineSet
EndChar
StartChar: Iogonek
Encoding: 302 302 47
Width: 632
GlyphClass: 2
Flags: W
AnchorPoint: "Anchor-1" 316 668 basechar 0
LayerCount: 2
Fore
SplineSet
109 123 m 1,0,-1
 232 123 l 1,1,-1
 232 545 l 1,2,-1
 109 545 l 1,3,-1
 109 668 l 1,4,-1
 523 668 l 1,5,-1
 523 545 l 1,6,-1
 400 545 l 1,7,-1
 400 123 l 1,8,-1
 523 123 l 1,9,-1
 523 0 l 1,10,11
 493 -2 493 -2 460 -21.5 c 128,-1,12
 427 -41 427 -41 427 -64 c 0,13,14
 427 -79 427 -79 439 -87 c 128,-1,15
 451 -95 451 -95 469 -95 c 0,16,17
 492 -95 492 -95 523 -86 c 1,18,-1
 523 -167 l 1,19,20
 512 -170 512 -170 486 -173 c 128,-1,21
 460 -176 460 -176 441 -176 c 0,22,23
 360 -176 360 -176 325.5 -147.5 c 128,-1,24
 291 -119 291 -119 291 -84 c 0,25,26
 291 -56 291 -56 309 -35 c 128,-1,27
 327 -14 327 -14 356 0 c 1,28,-1
 109 0 l 1,29,-1
 109 123 l 1,0,-1
EndSplineSet
EndChar
StartChar: iogonek
Encoding: 303 303 156
Width: 632
GlyphClass: 2
Flags: W
AnchorPoint: "Anchor-1" 334 765 basechar 0
LayerCount: 2
Fore
SplineSet
99 123 m 1,0,-1
 261 123 l 1,1,-1
 261 373 l 1,2,-1
 125 373 l 1,3,-1
 125 496 l 1,4,-1
 425 496 l 1,5,-1
 425 123 l 1,6,-1
 587 123 l 1,7,-1
 587 0 l 1,8,9
 539 -9 539 -9 515 -27 c 128,-1,10
 491 -45 491 -45 491 -65 c 0,11,12
 491 -81 491 -81 504.5 -88 c 128,-1,13
 518 -95 518 -95 537 -95 c 0,14,15
 560 -95 560 -95 587 -86 c 1,16,-1
 587 -167 l 1,17,18
 576 -170 576 -170 550.5 -173 c 128,-1,19
 525 -176 525 -176 506 -176 c 0,20,21
 425 -176 425 -176 390 -147.5 c 128,-1,22
 355 -119 355 -119 355 -84 c 0,23,24
 355 -32 355 -32 412 0 c 1,25,-1
 99 0 l 1,26,-1
 99 123 l 1,0,-1
266.5 603.5 m 128,-1,28
 239 631 239 631 239 671 c 256,29,30
 239 711 239 711 266.5 738 c 128,-1,31
 294 765 294 765 334 765 c 256,32,33
 374 765 374 765 401 738 c 128,-1,34
 428 711 428 711 428 671 c 256,35,36
 428 631 428 631 401 603.5 c 128,-1,37
 374 576 374 576 334 576 c 256,38,27
 294 576 294 576 266.5 603.5 c 128,-1,28
EndSplineSet
EndChar
StartChar: ij
Encoding: 307 307 157
Width: 632
GlyphClass: 1
Flags: W
LayerCount: 2
Fore
SplineSet
300 -33 m 1,0,-1
 336 -33 l 2,1,2
 366 -33 366 -33 380 -30 c 128,-1,3
 394 -27 394 -27 399 -18 c 128,-1,4
 404 -9 404 -9 404 10 c 2,5,-1
 404 373 l 1,6,-1
 335 373 l 1,7,-1
 335 496 l 1,8,-1
 568 496 l 1,9,-1
 568 -7 l 2,10,11
 568 -67 568 -67 547 -100.5 c 128,-1,12
 526 -134 526 -134 482.5 -147.5 c 128,-1,13
 439 -161 439 -161 367 -161 c 2,14,-1
 300 -161 l 1,15,-1
 300 -33 l 1,0,-1
91 373 m 1,16,-1
 21 373 l 1,17,-1
 21 496 l 1,18,-1
 255 496 l 1,19,-1
 255 0 l 1,20,-1
 91 0 l 1,21,-1
 91 373 l 1,16,-1
96 603.5 m 128,-1,23
 69 631 69 631 69 671 c 256,24,25
 69 711 69 711 96 738 c 128,-1,26
 123 765 123 765 163 765 c 256,27,28
 203 765 203 765 230.5 738 c 128,-1,29
 258 711 258 711 258 671 c 256,30,31
 258 631 258 631 230.5 603.5 c 128,-1,32
 203 576 203 576 163 576 c 256,33,22
 123 576 123 576 96 603.5 c 128,-1,23
409.5 603.5 m 128,-1,35
 382 631 382 631 382 671 c 256,36,37
 382 711 382 711 409.5 738 c 128,-1,38
 437 765 437 765 477 765 c 256,39,40
 517 765 517 765 544.5 738 c 128,-1,41
 572 711 572 711 572 671 c 256,42,43
 572 631 572 631 544.5 603.5 c 128,-1,44
 517 576 517 576 477 576 c 256,45,34
 437 576 437 576 409.5 603.5 c 128,-1,35
EndSplineSet
EndChar
StartChar: Lslash
Encoding: 321 321 55
Width: 632
GlyphClass: 1
Flags: W
LayerCount: 2
Fore
SplineSet
101 224 m 1,0,-1
 30 182 l 1,1,-1
 30 309 l 1,2,-1
 101 352 l 1,3,-1
 101 668 l 1,4,-1
 270 668 l 1,5,-1
 270 453 l 1,6,-1
 421 543 l 1,7,-1
 421 416 l 1,8,-1
 270 326 l 1,9,-1
 270 149 l 1,10,-1
 584 149 l 1,11,-1
 584 0 l 1,12,-1
 101 0 l 1,13,-1
 101 224 l 1,0,-1
EndSplineSet
EndChar
StartChar: lslash
Encoding: 322 322 166
Width: 632
GlyphClass: 1
Flags: W
LayerCount: 2
Fore
SplineSet
252 11 m 128,-1,1
 216 22 216 22 200 53 c 128,-1,2
 184 84 184 84 184 145 c 2,3,-1
 184 250 l 1,4,-1
 128 220 l 1,5,-1
 128 342 l 1,6,-1
 184 373 l 1,7,-1
 184 585 l 1,8,-1
 69 585 l 1,9,-1
 69 708 l 1,10,-1
 348 708 l 1,11,-1
 348 460 l 1,12,-1
 473 528 l 1,13,-1
 473 406 l 1,14,-1
 348 338 l 1,15,-1
 348 193 l 2,16,17
 348 164 348 164 352.5 151 c 128,-1,18
 357 138 357 138 370.5 133 c 128,-1,19
 384 128 384 128 413 128 c 2,20,-1
 583 128 l 1,21,-1
 583 0 l 1,22,-1
 355 0 l 2,23,0
 288 0 288 0 252 11 c 128,-1,1
EndSplineSet
EndChar
StartChar: Scedilla
Encoding: 350 350 80
Width: 632
GlyphClass: 2
Flags: W
AnchorPoint: "Anchor-1" 316 668 basechar 0
LayerCount: 2
Fore
SplineSet
217 -176 m 1,1,-1
 233 -124 l 1,2,3
 241 -128 241 -128 259 -132 c 128,-1,4
 277 -136 277 -136 295 -136 c 0,5,6
 338 -136 338 -136 338 -111 c 0,7,8
 338 -99 338 -99 327.5 -92 c 128,-1,9
 317 -85 317 -85 300 -85 c 0,10,11
 289 -85 289 -85 274 -90 c 2,12,-1
 266 -91 l 2,13,14
 257 -91 257 -91 251.5 -85.5 c 128,-1,15
 246 -80 246 -80 246 -71 c 0,16,17
 246 -65 246 -65 249 -59 c 2,18,-1
 279 -10 l 1,19,20
 192 -1 192 -1 130 43 c 128,-1,21
 68 87 68 87 39 159 c 1,22,-1
 193 215 l 1,23,24
 203 174 203 174 240 148.5 c 128,-1,25
 277 123 277 123 324 123 c 0,26,27
 361 123 361 123 391.5 141 c 128,-1,28
 422 159 422 159 422 192 c 0,29,30
 422 222 422 222 395.5 239 c 128,-1,31
 369 256 369 256 311 267 c 2,32,-1
 259 278 l 1,33,34
 55 317 55 317 55 475 c 0,35,36
 55 536 55 536 92.5 582.5 c 128,-1,37
 130 629 130 629 192 654.5 c 128,-1,38
 254 680 254 680 326 680 c 0,39,40
 407 680 407 680 476.5 643 c 128,-1,41
 546 606 546 606 576 531 c 1,42,-1
 424 476 l 1,43,44
 411 509 411 509 381.5 527 c 128,-1,45
 352 545 352 545 313 545 c 256,46,47
 274 545 274 545 249 528.5 c 128,-1,48
 224 512 224 512 224 483 c 0,49,50
 224 437 224 437 295 423 c 2,51,-1
 360 410 l 2,52,53
 473 388 473 388 532 343.5 c 128,-1,54
 591 299 591 299 591 214 c 0,55,56
 591 149 591 149 557 99 c 128,-1,57
 523 49 523 49 465 20.5 c 128,-1,58
 407 -8 407 -8 338 -12 c 1,59,-1
 314 -49 l 1,60,61
 326 -46 326 -46 348 -46 c 0,62,63
 383 -46 383 -46 410.5 -60.5 c 128,-1,64
 438 -75 438 -75 438 -108 c 0,65,66
 438 -151 438 -151 399.5 -169.5 c 128,-1,67
 361 -188 361 -188 305 -188 c 0,68,0
 256 -188 256 -188 217 -176 c 1,1,-1
EndSplineSet
Substitution2: "'locl' Localized Forms in Latin lookup 4 subtable" uni0218
AlternateSubs2: "'aalt' Access All Alternates in Latin lookup 0 subtable" uni0218
EndChar
StartChar: scedilla
Encoding: 351 351 191
Width: 632
GlyphClass: 2
Flags: W
AnchorPoint: "Anchor-1" 322 496 basechar 0
LayerCount: 2
Fore
SplineSet
223 -176 m 1,1,-1
 239 -124 l 1,2,3
 247 -128 247 -128 265 -132 c 128,-1,4
 283 -136 283 -136 301 -136 c 0,5,6
 344 -136 344 -136 344 -111 c 0,7,8
 344 -99 344 -99 333.5 -92 c 128,-1,9
 323 -85 323 -85 306 -85 c 0,10,11
 295 -85 295 -85 280 -90 c 2,12,-1
 272 -91 l 2,13,14
 263 -91 263 -91 257.5 -85.5 c 128,-1,15
 252 -80 252 -80 252 -71 c 0,16,17
 252 -65 252 -65 255 -59 c 2,18,-1
 285 -11 l 1,19,20
 205 -5 205 -5 148 27.5 c 128,-1,21
 91 60 91 60 66 114 c 1,22,-1
 204 165 l 1,23,24
 213 136 213 136 245.5 120 c 128,-1,25
 278 104 278 104 323 104 c 0,26,27
 359 104 359 104 385 115.5 c 128,-1,28
 411 127 411 127 411 147 c 0,29,30
 411 159 411 159 395.5 168.5 c 128,-1,31
 380 178 380 178 340 185 c 2,32,-1
 250 201 l 2,33,34
 173 214 173 214 129 251.5 c 128,-1,35
 85 289 85 289 85 347 c 0,36,37
 85 399 85 399 117.5 436 c 128,-1,38
 150 473 150 473 203.5 492 c 128,-1,39
 257 511 257 511 320 511 c 0,40,41
 400 511 400 511 461.5 483 c 128,-1,42
 523 455 523 455 551 394 c 1,43,-1
 413 343 l 1,44,45
 392 396 392 396 318 396 c 0,46,47
 279 396 279 396 259.5 385 c 128,-1,48
 240 374 240 374 240 356 c 0,49,50
 240 342 240 342 252 334.5 c 128,-1,51
 264 327 264 327 297 321 c 2,52,-1
 392 304 l 2,53,54
 486 287 486 287 526 254 c 128,-1,55
 566 221 566 221 566 158 c 0,56,57
 566 80 566 80 504.5 36.5 c 128,-1,58
 443 -7 443 -7 344 -11 c 1,59,-1
 320 -49 l 1,60,61
 332 -46 332 -46 354 -46 c 0,62,63
 389 -46 389 -46 416.5 -60.5 c 128,-1,64
 444 -75 444 -75 444 -108 c 0,65,66
 444 -151 444 -151 405.5 -169.5 c 128,-1,67
 367 -188 367 -188 311 -188 c 0,68,0
 262 -188 262 -188 223 -176 c 1,1,-1
EndSplineSet
Substitution2: "'locl' Localized Forms in Latin lookup 4 subtable" uni0219
AlternateSubs2: "'aalt' Access All Alternates in Latin lookup 0 subtable" uni0219
EndChar
StartChar: uni0162
Encoding: 354 354 85
Width: 632
GlyphClass: 2
Flags: W
AnchorPoint: "Anchor-1" 316 668 basechar 0
LayerCount: 2
Fore
SplineSet
232 519 m 1,0,-1
 49 519 l 1,1,-1
 49 668 l 1,2,-1
 583 668 l 1,3,-1
 583 519 l 1,4,-1
 400 519 l 1,5,-1
 400 0 l 1,6,-1
 347 0 l 1,7,-1
 316 -49 l 1,8,9
 328 -46 328 -46 350 -46 c 0,10,11
 385 -46 385 -46 412.5 -60.5 c 128,-1,12
 440 -75 440 -75 440 -108 c 0,13,14
 440 -151 440 -151 401.5 -169.5 c 128,-1,15
 363 -188 363 -188 307 -188 c 0,16,17
 258 -188 258 -188 219 -176 c 1,18,-1
 235 -124 l 1,19,20
 243 -128 243 -128 261 -132 c 128,-1,21
 279 -136 279 -136 297 -136 c 0,22,23
 340 -136 340 -136 340 -111 c 0,24,25
 340 -99 340 -99 329.5 -92 c 128,-1,26
 319 -85 319 -85 302 -85 c 0,27,28
 291 -85 291 -85 276 -90 c 2,29,-1
 268 -91 l 2,30,31
 259 -91 259 -91 253.5 -85.5 c 128,-1,32
 248 -80 248 -80 248 -71 c 0,33,34
 248 -65 248 -65 251 -59 c 2,35,-1
 288 0 l 1,36,-1
 232 0 l 1,37,-1
 232 519 l 1,0,-1
EndSplineSet
Substitution2: "'locl' Localized Forms in Latin lookup 4 subtable" uni021A
AlternateSubs2: "'aalt' Access All Alternates in Latin lookup 0 subtable" uni021A
EndChar
StartChar: uni0163
Encoding: 355 355 196
Width: 632
GlyphClass: 2
Flags: W
AnchorPoint: "Anchor-3" 380 554 basechar 0
AnchorPoint: "Anchor-1" 288 496 basechar 0
LayerCount: 2
Fore
SplineSet
224 -176 m 1,1,-1
 240 -124 l 1,2,3
 248 -128 248 -128 266 -132 c 128,-1,4
 284 -136 284 -136 302 -136 c 0,5,6
 345 -136 345 -136 345 -111 c 0,7,8
 345 -99 345 -99 334.5 -92 c 128,-1,9
 324 -85 324 -85 307 -85 c 0,10,11
 296 -85 296 -85 281 -90 c 2,12,-1
 273 -91 l 2,13,14
 264 -91 264 -91 258.5 -85.5 c 128,-1,15
 253 -80 253 -80 253 -71 c 0,16,17
 253 -65 253 -65 256 -59 c 2,18,-1
 294 3 l 1,19,20
 234 10 234 10 210 40.5 c 128,-1,21
 186 71 186 71 186 143 c 2,22,-1
 186 373 l 1,23,-1
 88 373 l 1,24,-1
 88 496 l 1,25,-1
 186 496 l 1,26,-1
 186 620 l 1,27,-1
 350 620 l 1,28,-1
 350 496 l 1,29,-1
 551 496 l 1,30,-1
 551 373 l 1,31,-1
 350 373 l 1,32,-1
 350 183 l 2,33,34
 350 150 350 150 364 139 c 128,-1,35
 378 128 378 128 416 128 c 2,36,-1
 501 128 l 1,37,-1
 501 0 l 1,38,-1
 352 0 l 1,39,-1
 321 -49 l 1,40,41
 333 -46 333 -46 355 -46 c 0,42,43
 390 -46 390 -46 417.5 -60.5 c 128,-1,44
 445 -75 445 -75 445 -108 c 0,45,46
 445 -151 445 -151 406.5 -169.5 c 128,-1,47
 368 -188 368 -188 312 -188 c 0,48,0
 263 -188 263 -188 224 -176 c 1,1,-1
EndSplineSet
Substitution2: "'locl' Localized Forms in Latin lookup 4 subtable" uni021B
AlternateSubs2: "'aalt' Access All Alternates in Latin lookup 0 subtable" uni021B
EndChar
StartChar: Uogonek
Encoding: 370 370 94
Width: 632
GlyphClass: 2
Flags: W
AnchorPoint: "Anchor-3" 625 668 basechar 0
AnchorPoint: "Anchor-1" 316 668 basechar 0
LayerCount: 2
Fore
SplineSet
321.5 -147.5 m 128,-1,1
 287 -119 287 -119 287 -81 c 0,2,3
 287 -41 287 -41 316 -12 c 1,4,5
 179 -12 179 -12 115 53 c 128,-1,6
 51 118 51 118 51 266 c 2,7,-1
 51 668 l 1,8,-1
 220 668 l 1,9,-1
 220 243 l 2,10,11
 220 185 220 185 241 155 c 128,-1,12
 262 125 262 125 318 125 c 0,13,14
 373 125 373 125 392.5 154.5 c 128,-1,15
 412 184 412 184 412 243 c 2,16,-1
 412 668 l 1,17,-1
 581 668 l 1,18,-1
 581 266 l 2,19,20
 581 173 581 173 555.5 113.5 c 128,-1,21
 530 54 530 54 476 21 c 0,22,23
 452 6 452 6 437 -13.5 c 128,-1,24
 422 -33 422 -33 422 -56 c 0,25,26
 422 -76 422 -76 435 -85.5 c 128,-1,27
 448 -95 448 -95 468 -95 c 0,28,29
 490 -95 490 -95 519 -86 c 1,30,-1
 519 -166 l 1,31,32
 509 -170 509 -170 483 -173 c 128,-1,33
 457 -176 457 -176 437 -176 c 0,34,0
 356 -176 356 -176 321.5 -147.5 c 128,-1,1
EndSplineSet
EndChar
StartChar: uogonek
Encoding: 371 371 205
Width: 632
GlyphClass: 2
Flags: W
AnchorPoint: "Anchor-3" 583 496 basechar 0
AnchorPoint: "Anchor-1" 315 496 basechar 0
LayerCount: 2
Fore
SplineSet
112 40 m 128,-1,1
 73 92 73 92 73 201 c 2,2,-1
 73 496 l 1,3,-1
 237 496 l 1,4,-1
 237 241 l 2,5,6
 237 196 237 196 240.5 171 c 128,-1,7
 244 146 244 146 260 129.5 c 128,-1,8
 276 113 276 113 309 113 c 0,9,10
 354 113 354 113 372.5 141.5 c 128,-1,11
 391 170 391 170 391 237 c 2,12,-1
 391 496 l 1,13,-1
 555 496 l 1,14,-1
 555 0 l 1,15,16
 506 -9 506 -9 482 -27 c 128,-1,17
 458 -45 458 -45 458 -65 c 0,18,19
 458 -81 458 -81 471.5 -88 c 128,-1,20
 485 -95 485 -95 504 -95 c 0,21,22
 526 -95 526 -95 555 -86 c 1,23,-1
 555 -167 l 1,24,25
 544 -170 544 -170 518 -173 c 128,-1,26
 492 -176 492 -176 473 -176 c 0,27,28
 392 -176 392 -176 357.5 -147.5 c 128,-1,29
 323 -119 323 -119 323 -84 c 0,30,31
 323 -48 323 -48 346.5 -25.5 c 128,-1,32
 370 -3 370 -3 408 14 c 1,33,-1
 391 70 l 1,34,35
 367 29 367 29 334.5 8.5 c 128,-1,36
 302 -12 302 -12 248 -12 c 0,37,0
 151 -12 151 -12 112 40 c 128,-1,1
EndSplineSet
EndChar
StartChar: florin
Encoding: 402 402 286
Width: 632
GlyphClass: 1
Flags: W
LayerCount: 2
Fore
SplineSet
56 -160 m 1,1,-1
 56 -17 l 1,2,3
 88 -23 88 -23 133 -23 c 0,4,5
 171 -23 171 -23 189 -9 c 128,-1,6
 207 5 207 5 213 34.5 c 128,-1,7
 219 64 219 64 219 123 c 2,8,-1
 219 373 l 1,9,-1
 56 373 l 1,10,-1
 56 496 l 1,11,-1
 219 496 l 1,12,-1
 219 579 l 2,13,14
 219 638 219 638 240 671.5 c 128,-1,15
 261 705 261 705 304.5 719 c 128,-1,16
 348 733 348 733 420 733 c 2,17,-1
 571 733 l 1,18,-1
 571 603 l 1,19,-1
 450 603 l 2,20,21
 408 603 408 603 395 595.5 c 128,-1,22
 382 588 382 588 382 563 c 2,23,-1
 382 496 l 1,24,-1
 571 496 l 1,25,-1
 571 373 l 1,26,-1
 382 373 l 1,27,-1
 382 38 l 2,28,29
 382 -71 382 -71 332 -121.5 c 128,-1,30
 282 -172 282 -172 177 -172 c 0,31,0
 118 -172 118 -172 56 -160 c 1,1,-1
EndSplineSet
EndChar
StartChar: acutecomb
Encoding: 769 769 342
Width: 0
GlyphClass: 4
Flags: W
AnchorPoint: "Anchor-5" 266 731 basemark 0
AnchorPoint: "Anchor-5" 266 496 mark 0
AnchorPoint: "Anchor-1" 266 496 mark 0
LayerCount: 2
Fore
SplineSet
336 723 m 128,-1,1
 348 731 348 731 366 731 c 0,2,3
 392 731 392 731 408.5 714.5 c 128,-1,4
 425 698 425 698 425 675 c 0,5,6
 425 659 425 659 417.5 646 c 128,-1,7
 410 633 410 633 387 616 c 2,8,-1
 329 575 l 1,9,-1
 207 575 l 1,10,-1
 308 696 l 2,11,0
 324 715 324 715 336 723 c 128,-1,1
EndSplineSet
Substitution2: "Single Substitution lookup 12 subtable" acutecomb.case
Substitution2: "'case' Case-Sensitive Forms in Latin lookup 9 subtable" acutecomb.case
AlternateSubs2: "'aalt' Access All Alternates in Latin lookup 0 subtable" acutecomb.case
EndChar
StartChar: tildecomb
Encoding: 771 771 355
Width: 0
GlyphClass: 4
Flags: W
AnchorPoint: "Anchor-5" 316 690 basemark 0
AnchorPoint: "Anchor-5" 316 496 mark 0
AnchorPoint: "Anchor-1" 316 496 mark 0
LayerCount: 2
Fore
SplineSet
345 574 m 128,-1,1
 327 580 327 580 305 591 c 0,2,3
 281 605 281 605 264 605 c 0,4,5
 227 605 227 605 220 573 c 1,6,-1
 127 573 l 1,7,8
 136 630 136 630 168.5 660 c 128,-1,9
 201 690 201 690 256 690 c 0,10,11
 280 690 280 690 296.5 684 c 128,-1,12
 313 678 313 678 332 667 c 0,13,14
 348 658 348 658 358 654 c 128,-1,15
 368 650 368 650 380 650 c 0,16,17
 393 650 393 650 403 655 c 128,-1,18
 413 660 413 660 423 670 c 0,19,20
 444 691 444 691 461 691 c 0,21,22
 480 691 480 691 492.5 679 c 128,-1,23
 505 667 505 667 505 649 c 0,24,25
 505 626 505 626 487 607.5 c 128,-1,26
 469 589 469 589 442 578.5 c 128,-1,27
 415 568 415 568 391 568 c 0,28,0
 363 568 363 568 345 574 c 128,-1,1
EndSplineSet
Substitution2: "Single Substitution lookup 12 subtable" tildecomb.case
Substitution2: "'case' Case-Sensitive Forms in Latin lookup 9 subtable" tildecomb.case
AlternateSubs2: "'aalt' Access All Alternates in Latin lookup 0 subtable" tildecomb.case
EndChar
StartChar: uni0307
Encoding: 775 775 337
Width: 0
GlyphClass: 4
Flags: W
AnchorPoint: "Anchor-5" 316 727 basemark 0
AnchorPoint: "Anchor-5" 316 496 mark 0
AnchorPoint: "Anchor-1" 316 496 mark 0
LayerCount: 2
Fore
SplineSet
260.5 592.5 m 128,-1,1
 237 616 237 616 237 648 c 256,2,3
 237 680 237 680 260.5 703.5 c 128,-1,4
 284 727 284 727 316 727 c 256,5,6
 348 727 348 727 371.5 703.5 c 128,-1,7
 395 680 395 680 395 648 c 256,8,9
 395 616 395 616 371.5 592.5 c 128,-1,10
 348 569 348 569 316 569 c 256,11,0
 284 569 284 569 260.5 592.5 c 128,-1,1
EndSplineSet
Substitution2: "Single Substitution lookup 12 subtable" uni0307.case
Substitution2: "'case' Case-Sensitive Forms in Latin lookup 9 subtable" uni0307.case
AlternateSubs2: "'aalt' Access All Alternates in Latin lookup 0 subtable" uni0307.case
EndChar
StartChar: uni030A
Encoding: 778 778 353
Width: 0
GlyphClass: 4
Flags: W
AnchorPoint: "Anchor-5" 316 799 basemark 0
AnchorPoint: "Anchor-5" 316 496 mark 0
AnchorPoint: "Anchor-1" 316 496 mark 0
LayerCount: 2
Fore
SplineSet
249.5 554.5 m 128,-1,1
 219 572 219 572 201.5 602 c 128,-1,2
 184 632 184 632 184 668 c 256,3,4
 184 704 184 704 201.5 734 c 128,-1,5
 219 764 219 764 249.5 781.5 c 128,-1,6
 280 799 280 799 316 799 c 256,7,8
 352 799 352 799 382.5 781.5 c 128,-1,9
 413 764 413 764 430.5 734 c 128,-1,10
 448 704 448 704 448 668 c 256,11,12
 448 632 448 632 430.5 602 c 128,-1,13
 413 572 413 572 382.5 554.5 c 128,-1,14
 352 537 352 537 316 537 c 256,15,0
 280 537 280 537 249.5 554.5 c 128,-1,1
349 633.5 m 128,-1,17
 363 648 363 648 363 668 c 256,18,19
 363 688 363 688 349 702.5 c 128,-1,20
 335 717 335 717 316 717 c 256,21,22
 297 717 297 717 283 702.5 c 128,-1,23
 269 688 269 688 269 668 c 256,24,25
 269 648 269 648 283 633.5 c 128,-1,26
 297 619 297 619 316 619 c 256,27,16
 335 619 335 619 349 633.5 c 128,-1,17
EndSplineSet
Substitution2: "Single Substitution lookup 12 subtable" uni030A.case
Substitution2: "'case' Case-Sensitive Forms in Latin lookup 9 subtable" uni030A.case
AlternateSubs2: "'aalt' Access All Alternates in Latin lookup 0 subtable" uni030A.case
EndChar
StartChar: uni030B
Encoding: 779 779 344
Width: 0
GlyphClass: 4
Flags: W
AnchorPoint: "Anchor-5" 365 731 basemark 0
AnchorPoint: "Anchor-5" 268 496 mark 0
AnchorPoint: "Anchor-1" 268 496 mark 0
LayerCount: 2
Fore
SplineSet
230 723 m 128,-1,1
 242 731 242 731 259 731 c 0,2,3
 285 731 285 731 302.5 714.5 c 128,-1,4
 320 698 320 698 320 675 c 0,5,6
 320 661 320 661 311 647 c 128,-1,7
 302 633 302 633 278 616 c 2,8,-1
 222 575 l 1,9,-1
 104 575 l 1,10,-1
 203 696 l 2,11,0
 218 715 218 715 230 723 c 128,-1,1
440.5 723 m 128,-1,13
 453 731 453 731 470 731 c 0,14,15
 495 731 495 731 512.5 714.5 c 128,-1,16
 530 698 530 698 530 675 c 0,17,18
 530 647 530 647 488 616 c 2,19,-1
 432 575 l 1,20,-1
 314 575 l 1,21,-1
 413 696 l 2,22,12
 428 715 428 715 440.5 723 c 128,-1,13
EndSplineSet
Substitution2: "Single Substitution lookup 12 subtable" uni030B.case
Substitution2: "'case' Case-Sensitive Forms in Latin lookup 9 subtable" uni030B.case
AlternateSubs2: "'aalt' Access All Alternates in Latin lookup 0 subtable" uni030B.case
EndChar
StartChar: uni0326
Encoding: 806 806 359
Width: 0
GlyphClass: 4
Flags: W
AnchorPoint: "Anchor-4" 327 -251 basemark 0
AnchorPoint: "Anchor-4" 327 0 mark 0
AnchorPoint: "Anchor-0" 327 0 mark 0
LayerCount: 2
Fore
SplineSet
277.5 -188 m 128,-1,1
 304 -172 304 -172 304 -145 c 0,2,3
 304 -124 304 -124 283.5 -108 c 128,-1,4
 263 -92 263 -92 234 -86 c 1,5,-1
 343 -43 l 1,6,7
 432 -78 432 -78 432 -141 c 0,8,9
 432 -189 432 -189 385 -220 c 128,-1,10
 338 -251 338 -251 255 -251 c 1,11,-1
 201 -204 l 1,12,0
 251 -204 251 -204 277.5 -188 c 128,-1,1
EndSplineSet
EndChar
StartChar: uni03BC
Encoding: 956 956 227
Width: 632
GlyphClass: 1
Flags: W
LayerCount: 2
Fore
SplineSet
51 496 m 1,0,-1
 215 496 l 1,1,-1
 215 241 l 2,2,3
 215 196 215 196 218.5 171 c 128,-1,4
 222 146 222 146 237.5 129.5 c 128,-1,5
 253 113 253 113 286 113 c 0,6,7
 331 113 331 113 349.5 141.5 c 128,-1,8
 368 170 368 170 368 237 c 2,9,-1
 368 496 l 1,10,-1
 533 496 l 1,11,-1
 533 197 l 2,12,13
 533 156 533 156 544.5 143.5 c 128,-1,14
 556 131 556 131 592 131 c 2,15,-1
 612 131 l 1,16,-1
 612 0 l 1,17,-1
 518 0 l 2,18,19
 463 0 463 0 433 12 c 128,-1,20
 403 24 403 24 388 47 c 1,21,22
 354 -12 354 -12 287 -12 c 0,23,24
 244 -12 244 -12 215 11 c 1,25,-1
 215 -162 l 1,26,-1
 51 -162 l 1,27,-1
 51 496 l 1,0,-1
EndSplineSet
EndChar
StartChar: pi
Encoding: 960 960 228
Width: 632
GlyphClass: 1
Flags: W
LayerCount: 2
Fore
SplineSet
105 375 m 1,0,-1
 14 375 l 1,1,-1
 14 496 l 1,2,-1
 593 496 l 1,3,-1
 593 375 l 1,4,-1
 504 375 l 1,5,-1
 504 153 l 2,6,7
 504 128 504 128 515 119 c 128,-1,8
 526 110 526 110 560 110 c 2,9,-1
 593 110 l 1,10,-1
 593 0 l 1,11,-1
 510 0 l 2,12,13
 456 0 456 0 426 9.5 c 128,-1,14
 396 19 396 19 382 44 c 128,-1,15
 368 69 368 69 368 117 c 2,16,-1
 368 375 l 1,17,-1
 242 375 l 1,18,-1
 242 0 l 1,19,-1
 105 0 l 1,20,-1
 105 375 l 1,0,-1
EndSplineSet
EndChar
StartChar: ellipsis
Encoding: 8230 8230 253
Width: 632
GlyphClass: 1
Flags: W
LayerCount: 2
Fore
SplineSet
51 14 m 128,-1,1
 25 40 25 40 25 77 c 256,2,3
 25 114 25 114 51 140.5 c 128,-1,4
 77 167 77 167 114 167 c 256,5,6
 151 167 151 167 177.5 140.5 c 128,-1,7
 204 114 204 114 204 77 c 256,8,9
 204 40 204 40 177.5 14 c 128,-1,10
 151 -12 151 -12 114 -12 c 256,11,0
 77 -12 77 -12 51 14 c 128,-1,1
252 14 m 128,-1,13
 226 40 226 40 226 77 c 256,14,15
 226 114 226 114 252 140.5 c 128,-1,16
 278 167 278 167 315 167 c 256,17,18
 352 167 352 167 378.5 140.5 c 128,-1,19
 405 114 405 114 405 77 c 256,20,21
 405 40 405 40 378.5 14 c 128,-1,22
 352 -12 352 -12 315 -12 c 256,23,12
 278 -12 278 -12 252 14 c 128,-1,13
454.5 14 m 128,-1,25
 428 40 428 40 428 77 c 256,26,27
 428 114 428 114 454.5 140.5 c 128,-1,28
 481 167 481 167 518 167 c 256,29,30
 555 167 555 167 581 140.5 c 128,-1,31
 607 114 607 114 607 77 c 256,32,33
 607 40 607 40 581 14 c 128,-1,34
 555 -12 555 -12 518 -12 c 256,35,24
 481 -12 481 -12 454.5 14 c 128,-1,25
EndSplineSet
EndChar
StartChar: perthousand
Encoding: 8240 8240 333
Width: 632
GlyphClass: 1
Flags: W
LayerCount: 2
Fore
SplineSet
117.5 432 m 128,-1,1
 87 450 87 450 69 481 c 128,-1,2
 51 512 51 512 51 548 c 256,3,4
 51 584 51 584 69 615 c 128,-1,5
 87 646 87 646 117.5 664 c 128,-1,6
 148 682 148 682 184 682 c 256,7,8
 220 682 220 682 250.5 664 c 128,-1,9
 281 646 281 646 299 615 c 128,-1,10
 317 584 317 584 317 548 c 256,11,12
 317 512 317 512 299 481 c 128,-1,13
 281 450 281 450 250.5 432 c 128,-1,14
 220 414 220 414 184 414 c 256,15,0
 148 414 148 414 117.5 432 c 128,-1,1
217.5 512.5 m 128,-1,17
 231 527 231 527 231 548 c 256,18,19
 231 569 231 569 217.5 583.5 c 128,-1,20
 204 598 204 598 184 598 c 256,21,22
 164 598 164 598 150.5 583.5 c 128,-1,23
 137 569 137 569 137 548 c 256,24,25
 137 527 137 527 150.5 512.5 c 128,-1,26
 164 498 164 498 184 498 c 256,27,16
 204 498 204 498 217.5 512.5 c 128,-1,17
117.5 4 m 128,-1,29
 87 22 87 22 69 53 c 128,-1,30
 51 84 51 84 51 120 c 256,31,32
 51 156 51 156 69 187 c 128,-1,33
 87 218 87 218 117.5 236 c 128,-1,34
 148 254 148 254 184 254 c 256,35,36
 220 254 220 254 250.5 236 c 128,-1,37
 281 218 281 218 299 187 c 128,-1,38
 317 156 317 156 317 120 c 256,39,40
 317 84 317 84 299 53 c 128,-1,41
 281 22 281 22 250.5 4 c 128,-1,42
 220 -14 220 -14 184 -14 c 256,43,28
 148 -14 148 -14 117.5 4 c 128,-1,29
217.5 84.5 m 128,-1,45
 231 99 231 99 231 120 c 256,46,47
 231 141 231 141 217.5 155.5 c 128,-1,48
 204 170 204 170 184 170 c 256,49,50
 164 170 164 170 150.5 155.5 c 128,-1,51
 137 141 137 141 137 120 c 256,52,53
 137 99 137 99 150.5 84.5 c 128,-1,54
 164 70 164 70 184 70 c 256,55,44
 204 70 204 70 217.5 84.5 c 128,-1,45
397.5 4 m 128,-1,57
 367 22 367 22 349 53 c 128,-1,58
 331 84 331 84 331 120 c 256,59,60
 331 156 331 156 349 187 c 128,-1,61
 367 218 367 218 397.5 236 c 128,-1,62
 428 254 428 254 464 254 c 256,63,64
 500 254 500 254 530.5 236 c 128,-1,65
 561 218 561 218 579 187 c 128,-1,66
 597 156 597 156 597 120 c 256,67,68
 597 84 597 84 579 53 c 128,-1,69
 561 22 561 22 530.5 4 c 128,-1,70
 500 -14 500 -14 464 -14 c 256,71,56
 428 -14 428 -14 397.5 4 c 128,-1,57
497.5 84.5 m 128,-1,73
 511 99 511 99 511 120 c 256,74,75
 511 141 511 141 497.5 155.5 c 128,-1,76
 484 170 484 170 464 170 c 256,77,78
 444 170 444 170 430.5 155.5 c 128,-1,79
 417 141 417 141 417 120 c 256,80,81
 417 99 417 99 430.5 84.5 c 128,-1,82
 444 70 444 70 464 70 c 256,83,72
 484 70 484 70 497.5 84.5 c 128,-1,73
56 343 m 1,84,-1
 592 534 l 1,85,-1
 592 432 l 1,86,-1
 56 241 l 1,87,-1
 56 343 l 1,84,-1
EndSplineSet
EndChar
StartChar: uni2113
Encoding: 8467 8467 299
Width: 632
GlyphClass: 1
Flags: W
LayerCount: 2
Fore
SplineSet
216 27.5 m 128,-1,1
 164 67 164 67 164 151 c 1,2,-1
 99 107 l 1,3,-1
 99 216 l 1,4,-1
 164 263 l 1,5,-1
 164 443 l 2,6,7
 164 567 164 567 216.5 623.5 c 128,-1,8
 269 680 269 680 362 680 c 0,9,10
 443 680 443 680 488.5 641 c 128,-1,11
 534 602 534 602 534 531 c 0,12,13
 534 481 534 481 508.5 438 c 128,-1,14
 483 395 483 395 440 356.5 c 128,-1,15
 397 318 397 318 326 266 c 1,16,-1
 326 197 l 2,17,18
 326 155 326 155 340.5 136.5 c 128,-1,19
 355 118 355 118 387 118 c 0,20,21
 425 118 425 118 464 148 c 1,22,-1
 525 54 l 1,23,24
 496 28 496 28 451.5 8 c 128,-1,25
 407 -12 407 -12 349 -12 c 0,26,0
 268 -12 268 -12 216 27.5 c 128,-1,1
382.5 442.5 m 128,-1,28
 403 479 403 479 403 518 c 0,29,30
 403 567 403 567 366 567 c 0,31,32
 326 567 326 567 326 498 c 2,33,-1
 326 377 l 1,34,27
 362 406 362 406 382.5 442.5 c 128,-1,28
EndSplineSet
EndChar
StartChar: estimated
Encoding: 8494 8494 301
Width: 632
GlyphClass: 1
Flags: W
LayerCount: 2
Fore
SplineSet
183.5 24 m 128,-1,1
 123 60 123 60 88.5 119.5 c 128,-1,2
 54 179 54 179 54 248 c 0,3,4
 54 321 54 321 89.5 381.5 c 128,-1,5
 125 442 125 442 185.5 476.5 c 128,-1,6
 246 511 246 511 317 511 c 0,7,8
 387 511 387 511 447 476 c 128,-1,9
 507 441 507 441 542 380.5 c 128,-1,10
 577 320 577 320 577 249 c 1,11,-1
 197 249 l 1,12,-1
 197 109 l 1,13,14
 220 87 220 87 251 75.5 c 128,-1,15
 282 64 282 64 317 64 c 0,16,17
 359 64 359 64 396 82.5 c 128,-1,18
 433 101 433 101 459 134 c 1,19,-1
 534 106 l 1,20,21
 498 52 498 52 440.5 20 c 128,-1,22
 383 -12 383 -12 317 -12 c 0,23,0
 244 -12 244 -12 183.5 24 c 128,-1,1
434 321 m 1,24,-1
 434 390 l 1,25,26
 410 411 410 411 379.5 423 c 128,-1,27
 349 435 349 435 317 435 c 0,28,29
 283 435 283 435 252 423 c 128,-1,30
 221 411 221 411 197 390 c 1,31,-1
 197 321 l 1,32,-1
 434 321 l 1,24,-1
EndSplineSet
EndChar
StartChar: partialdiff
Encoding: 8706 8706 331
Width: 632
GlyphClass: 1
Flags: W
LayerCount: 2
Fore
SplineSet
177 15 m 128,-1,1
 121 42 121 42 89 94.5 c 128,-1,2
 57 147 57 147 57 219 c 0,3,4
 57 281 57 281 84 334 c 128,-1,5
 111 387 111 387 161.5 418.5 c 128,-1,6
 212 450 212 450 277 450 c 0,7,8
 343 450 343 450 384.5 424.5 c 128,-1,9
 426 399 426 399 445 358 c 1,10,11
 439 462 439 462 364.5 508 c 128,-1,12
 290 554 290 554 170 554 c 0,13,14
 147 554 147 554 135 553 c 1,15,-1
 135 680 l 1,16,17
 258 680 258 680 353 653.5 c 128,-1,18
 448 627 448 627 511.5 546.5 c 128,-1,19
 575 466 575 466 575 316 c 0,20,21
 575 165 575 165 511 76.5 c 128,-1,22
 447 -12 447 -12 305 -12 c 0,23,0
 233 -12 233 -12 177 15 c 128,-1,1
382 145.5 m 128,-1,25
 407 176 407 176 407 218 c 0,26,27
 407 262 407 262 382 292 c 128,-1,28
 357 322 357 322 313 322 c 0,29,30
 268 322 268 322 243 292 c 128,-1,31
 218 262 218 262 218 218 c 0,32,33
 218 176 218 176 243.5 145.5 c 128,-1,34
 269 115 269 115 313 115 c 256,35,24
 357 115 357 115 382 145.5 c 128,-1,25
EndSplineSet
EndChar
StartChar: summation
Encoding: 8721 8721 329
Width: 632
GlyphClass: 1
Flags: W
LayerCount: 2
Fore
SplineSet
44 -26 m 1,0,-1
 280 254 l 1,1,-1
 44 532 l 1,2,-1
 44 668 l 1,3,-1
 588 668 l 1,4,-1
 588 532 l 1,5,-1
 226 532 l 1,6,-1
 464 254 l 1,7,-1
 226 -26 l 1,8,-1
 588 -26 l 1,9,-1
 588 -162 l 1,10,-1
 44 -162 l 1,11,-1
 44 -26 l 1,0,-1
EndSplineSet
EndChar
StartChar: integral
Encoding: 8747 8747 327
Width: 632
GlyphClass: 1
Flags: W
LayerCount: 2
Fore
SplineSet
135 -148 m 128,-1,1
 104 -122 104 -122 104 -87 c 0,2,3
 104 -59 104 -59 120.5 -41.5 c 128,-1,4
 137 -24 137 -24 165 -24 c 256,5,6
 193 -24 193 -24 208.5 -40.5 c 128,-1,7
 224 -57 224 -57 224 -85 c 0,8,9
 224 -93 224 -93 221 -105 c 1,10,11
 233 -96 233 -96 237 -77 c 128,-1,12
 241 -58 241 -58 242 -16 c 2,13,-1
 248 417 l 2,14,15
 250 558 250 558 296 619 c 128,-1,16
 342 680 342 680 414 680 c 0,17,18
 467 680 467 680 498 654 c 128,-1,19
 529 628 529 628 529 593 c 0,20,21
 529 565 529 565 512.5 548 c 128,-1,22
 496 531 496 531 468 531 c 256,23,24
 440 531 440 531 424.5 547.5 c 128,-1,25
 409 564 409 564 409 591 c 0,26,27
 409 601 409 601 412 611 c 1,28,29
 400 602 400 602 396 583 c 128,-1,30
 392 564 392 564 391 522 c 2,31,-1
 385 89 l 2,32,33
 383 -52 383 -52 337 -113 c 128,-1,34
 291 -174 291 -174 219 -174 c 0,35,0
 166 -174 166 -174 135 -148 c 128,-1,1
EndSplineSet
EndChar
StartChar: approxequal
Encoding: 8776 8776 322
Width: 632
GlyphClass: 1
Flags: W
LayerCount: 2
Fore
SplineSet
128 201 m 128,-1,1
 158 241 158 241 220 241 c 0,2,3
 246 241 246 241 268 232.5 c 128,-1,4
 290 224 290 224 320 207 c 0,5,6
 347 193 347 193 361.5 187 c 128,-1,7
 376 181 376 181 392 181 c 0,8,9
 433 181 433 181 433 244 c 1,10,-1
 541 203 l 1,11,12
 535 127 535 127 505 87.5 c 128,-1,13
 475 48 475 48 413 48 c 0,14,15
 387 48 387 48 365 56.5 c 128,-1,16
 343 65 343 65 313 82 c 0,17,18
 286 96 286 96 271.5 102 c 128,-1,19
 257 108 257 108 241 108 c 0,20,21
 200 108 200 108 200 45 c 1,22,-1
 92 85 l 1,23,0
 98 161 98 161 128 201 c 128,-1,1
128 410 m 128,-1,25
 158 450 158 450 220 450 c 0,26,27
 246 450 246 450 268 441.5 c 128,-1,28
 290 433 290 433 320 416 c 0,29,30
 347 402 347 402 361.5 396 c 128,-1,31
 376 390 376 390 392 390 c 0,32,33
 433 390 433 390 433 453 c 1,34,-1
 541 412 l 1,35,36
 535 336 535 336 505 296 c 128,-1,37
 475 256 475 256 413 256 c 0,38,39
 387 256 387 256 365 264.5 c 128,-1,40
 343 273 343 273 313 290 c 0,41,42
 286 304 286 304 271.5 310 c 128,-1,43
 257 316 257 316 241 316 c 0,44,45
 200 316 200 316 200 253 c 1,46,-1
 92 294 l 1,47,24
 98 370 98 370 128 410 c 128,-1,25
EndSplineSet
EndChar
StartChar: notequal
Encoding: 8800 8800 316
Width: 632
GlyphClass: 1
Flags: W
LayerCount: 2
Fore
SplineSet
126 91 m 1,0,-1
 59 91 l 1,1,-1
 59 229 l 1,2,-1
 222 229 l 1,3,-1
 257 277 l 1,4,-1
 59 277 l 1,5,-1
 59 415 l 1,6,-1
 351 415 l 1,7,-1
 408 496 l 1,8,-1
 571 496 l 1,9,-1
 513 415 l 1,10,-1
 573 415 l 1,11,-1
 573 277 l 1,12,-1
 419 277 l 1,13,-1
 384 229 l 1,14,-1
 573 229 l 1,15,-1
 573 91 l 1,16,-1
 288 91 l 1,17,-1
 224 0 l 1,18,-1
 61 0 l 1,19,-1
 126 91 l 1,0,-1
EndSplineSet
EndChar
StartChar: greaterequal
Encoding: 8805 8805 319
Width: 632
GlyphClass: 1
Flags: W
LayerCount: 2
Fore
SplineSet
57 278 m 1,0,-1
 388 328 l 1,1,-1
 57 375 l 1,2,-1
 57 511 l 1,3,-1
 575 394 l 1,4,-1
 575 259 l 1,5,-1
 57 143 l 1,6,-1
 57 278 l 1,0,-1
57 136 m 1,7,-1
 575 136 l 1,8,-1
 575 0 l 1,9,-1
 57 0 l 1,10,-1
 57 136 l 1,7,-1
EndSplineSet
EndChar
StartChar: gravecomb.case
Encoding: 65543 -1 341
Width: 0
GlyphClass: 4
Flags: W
AnchorPoint: "Anchor-5" 372 885 basemark 0
AnchorPoint: "Anchor-5" 372 668 mark 0
AnchorPoint: "Anchor-1" 372 668 mark 0
LayerCount: 2
Fore
SplineSet
209.5 800.5 m 128,-1,1
 202 814 202 814 202 831 c 0,2,3
 202 854 202 854 217.5 870 c 128,-1,4
 233 886 233 886 260 886 c 0,5,6
 293 886 293 886 325 848 c 2,7,-1
 430 729 l 1,8,-1
 299 729 l 1,9,-1
 239 772 l 2,10,0
 217 787 217 787 209.5 800.5 c 128,-1,1
EndSplineSet
EndChar
StartChar: uni0307.large
Encoding: 65542 -1 339
Width: 0
GlyphClass: 4
Flags: W
AnchorPoint: "Anchor-5" 316 765 basemark 0
AnchorPoint: "Anchor-5" 316 496 mark 0
AnchorPoint: "Anchor-1" 316 496 mark 0
LayerCount: 2
Fore
SplineSet
248.5 603.5 m 128,-1,1
 221 631 221 631 221 671 c 256,2,3
 221 711 221 711 248.5 738 c 128,-1,4
 276 765 276 765 316 765 c 256,5,6
 356 765 356 765 383.5 738 c 128,-1,7
 411 711 411 711 411 671 c 256,8,9
 411 631 411 631 383.5 603.5 c 128,-1,10
 356 576 356 576 316 576 c 256,11,0
 276 576 276 576 248.5 603.5 c 128,-1,1
EndSplineSet
EndChar
StartChar: uni030C.alt
Encoding: 65546 -1 346
Width: 0
GlyphClass: 4
Flags: W
AnchorPoint: "Anchor-3" 226 496 mark 0
LayerCount: 2
Fore
SplineSet
290 703.5 m 128,-1,1
 307 718 307 718 329 718 c 0,2,3
 356 718 356 718 371.5 702.5 c 128,-1,4
 387 687 387 687 387 663 c 0,5,6
 387 653 387 653 383 641 c 128,-1,7
 379 629 379 629 369 606 c 2,8,-1
 332 524 l 1,9,-1
 246 524 l 1,10,-1
 269 662 l 2,11,0
 273 689 273 689 290 703.5 c 128,-1,1
EndSplineSet
EndChar
StartChar: uni0328.alt
Encoding: 65553 -1 362
Width: 0
GlyphClass: 4
Flags: W
AnchorPoint: "Anchor-2" 433 10 mark 0
LayerCount: 2
Fore
SplineSet
235 -147.5 m 128,-1,1
 200 -119 200 -119 200 -81 c 0,2,3
 200 -31 200 -31 242.5 -0.5 c 128,-1,4
 285 30 285 30 352 42 c 1,5,-1
 419 42 l 1,6,7
 389 21 389 21 374.5 10 c 128,-1,8
 360 -1 360 -1 348 -18.5 c 128,-1,9
 336 -36 336 -36 336 -56 c 256,10,11
 336 -76 336 -76 349 -85.5 c 128,-1,12
 362 -95 362 -95 382 -95 c 0,13,14
 404 -95 404 -95 433 -86 c 1,15,-1
 433 -166 l 1,16,17
 422 -170 422 -170 396.5 -173 c 128,-1,18
 371 -176 371 -176 351 -176 c 0,19,0
 270 -176 270 -176 235 -147.5 c 128,-1,1
EndSplineSet
EndChar
